<?xml version="1.0" encoding="UTF-8"?>
<svg width="60px" height="60px" viewBox="0 0 60 60" version="1.1" xmlns="http://www.w3.org/2000/svg" xmlns:xlink="http://www.w3.org/1999/xlink">
    <!-- Generator: Sketch 46.2 (44496) - http://www.bohemiancoding.com/sketch -->
    <title>Adobe_Illustrator</title>
    <desc>Created with Sketch.</desc>
    <defs>
        <radialGradient cx="39.8681818%" cy="33.311215%" fx="39.8681818%" fy="33.311215%" r="65.1963636%" id="radialGradient-1">
            <stop stop-color="#1C0A00" stop-opacity="0.85" offset="0%"></stop>
            <stop stop-color="#1C0A00" offset="76.7%"></stop>
        </radialGradient>
    </defs>
    <g id="Page-1" stroke="none" stroke-width="1" fill="none" fill-rule="evenodd">
        <g id="Social_icons" transform="translate(-422.000000, -654.000000)">
            <g id="Adobe_Illustrator" transform="translate(422.000000, 654.000000)">
                <path d="M0,30 C0,13.4315 13.4315,0 30,0 C46.5685,0 60,13.4315 60,30 C60,46.5685 46.5685,60 30,60 C13.4315,60 0,46.5685 0,30 Z" id="path0_fill" fill="#F37021" fill-rule="nonzero"></path>
                <path d="M3,30 C3,15.08835 15.08835,3 30,3 C44.91165,3 57,15.08835 57,30 C57,44.91165 44.91165,57 30,57 C15.08835,57 3,44.91165 3,30 Z" id="path0_fill" fill="url(#radialGradient-1)" fill-rule="nonzero"></path>
                <path d="M20.0323828,35.7548065 L18.1683667,42.8114723 C18.1297684,43.0054052 18.0518657,43.0508289 17.8190991,43.0508289 L14.3621966,43.0508289 C14.1296653,43.0508289 14.091067,42.9731615 14.1296653,42.7013259 L20.8090561,19.2956862 C20.9255571,18.8685158 21.0032245,18.5008904 21.0420581,17.3358804 C21.0420581,17.1805457 21.1197255,17.1028784 21.2364618,17.1028784 L26.1681022,17.1028784 C26.3234369,17.1028784 26.4011042,17.1417121 26.4401732,17.3358804 L33.9348357,42.7401595 C33.9736693,42.9340925 33.9348357,43.0508289 33.7406673,43.0508289 L29.8573006,43.0508289 C29.6633676,43.0508289 29.5466313,43.0054052 29.508033,42.8500706 L27.5663496,35.7548065 L20.0326181,35.7548065 L20.0323828,35.7548065 Z M26.5955079,31.9302787 C25.9353356,29.328423 24.3817535,23.6257577 23.7994839,20.8685674 L23.7606502,20.8685674 C23.2555772,23.6257577 22.0128998,28.2799139 21.0422935,31.9302787 L26.5955079,31.9302787 Z M37.1846252,18.8496874 C37.1846252,17.3351743 38.2331343,16.442 39.5923126,16.442 C41.0291583,16.442 42,17.4128417 42,18.8496874 C42,20.4030341 40.9903246,21.2573748 39.553479,21.2573748 C38.1554669,21.2573748 37.1846252,20.4030341 37.1846252,18.8496874 L37.1846252,18.8496874 Z M37.4482235,24.2000253 C37.4482235,24.005857 37.5258908,23.9281896 37.7200591,23.9281896 L41.4127879,23.9281896 C41.6069562,23.9281896 41.6846236,24.005857 41.6846236,24.2000253 L41.6846236,42.7789932 C41.6846236,42.9731615 41.6457899,43.0508289 41.4127879,43.0508289 L37.7588928,43.0508289 C37.5258908,43.0508289 37.4482235,42.9340925 37.4482235,42.7401595 L37.4482235,24.2000253 Z" id="Shape" fill="#FF7F18"></path>
            </g>
        </g>
    </g>
</svg>