<?xml version="1.0" encoding="UTF-8"?>
<svg width="60px" height="60px" viewBox="0 0 60 60" version="1.1" xmlns="http://www.w3.org/2000/svg" xmlns:xlink="http://www.w3.org/1999/xlink">
    <!-- Generator: Sketch 46.2 (44496) - http://www.bohemiancoding.com/sketch -->
    <title>Allo</title>
    <desc>Created with Sketch.</desc>
    <defs></defs>
    <g id="Page-1" stroke="none" stroke-width="1" fill="none" fill-rule="evenodd">
        <g id="Social_icons" transform="translate(-722.000000, -252.000000)">
            <g id="Allo" transform="translate(722.000000, 252.000000)">
                <circle id="Oval" fill="#FFFFFF" cx="30" cy="30" r="30"></circle>
                <g transform="translate(12.000000, 12.000000)">
                    <path d="M36,2.66798468 C36,1.20059311 34.7997998,0 33.3328885,0 L17.9969975,0 C6.83958113,0 -1.93966083,10.160575 0.37183579,21.721842 C1.79429525,28.8364678 7.46190715,34.372536 14.5964304,35.6842951 C25.7093949,37.7297501 35.4443518,29.5701636 35.9777741,18.8982248 L36,18.8982248 L36,2.66798468 L36,2.66798468 Z" id="XMLID_12_" fill="#F4B70A" transform="translate(18.000000, 18.000000) scale(1, -1) translate(-18.000000, -18.000000) "></path>
                    <path d="M26.3278383,26.9140126 C26.3278383,26.9140126 27,27.3141464 27,26.3880972 L27,17.8444553 C26.9199054,12.9473578 22.9212191,9 18,9 C13.0294373,9 9,13.0269127 9,17.9943613 C9,22.9618099 13.0294373,26.9887226 18,26.9887226 C20.2818581,26.9887226 22.3653746,26.1400536 23.9517567,24.7413213 L26.3278383,26.9140126 Z" id="Combined-Shape" fill="#FFFFFF"></path>
                </g>
            </g>
        </g>
    </g>
</svg>