<?xml version="1.0" encoding="UTF-8"?>
<svg width="60px" height="60px" viewBox="0 0 60 60" version="1.1" xmlns="http://www.w3.org/2000/svg" xmlns:xlink="http://www.w3.org/1999/xlink">
    <!-- Generator: Sketch 46.2 (44496) - http://www.bohemiancoding.com/sketch -->
    <title>Amazon</title>
    <desc>Created with Sketch.</desc>
    <defs></defs>
    <g id="Page-1" stroke="none" stroke-width="1" fill="none" fill-rule="evenodd">
        <g id="Social_icons" transform="translate(-422.000000, -1655.000000)">
            <g id="Amazon" transform="translate(422.000000, 1655.000000)">
                <path d="M0,30 C0,13.4314567 13.4314567,0 30,0 C46.5685433,0 60,13.4314567 60,30 C60,46.5685433 46.5685433,60 30,60 C13.4314567,60 0,46.5685433 0,30 Z" id="back" fill="#FFFFFF"></path>
                <path d="M21.9147393,30.0737592 C21.9147393,28.5660708 22.2860358,27.2789099 23.0286286,26.2100263 C23.7712214,25.1411426 24.783848,24.3332917 26.0732592,23.7864733 C27.2501563,23.2846606 28.7015877,22.9246156 30.4253032,22.7063383 C31.0103763,22.6388299 31.9734967,22.5533192 33.3056632,22.4453057 L33.3056632,21.8894862 C33.3056632,20.4943118 33.1481435,19.5536942 32.8443555,19.0766346 C32.3875484,18.4195524 31.6674584,18.0910114 30.6840855,18.0910114 L30.4298037,18.0910114 C29.7097137,18.1585198 29.0863858,18.3835479 28.5620703,18.7795974 C28.0377547,19.1733967 27.7002125,19.720215 27.5494437,20.4178022 C27.4594324,20.8543568 27.2411551,21.1063883 26.8923615,21.1716465 L23.127641,20.7125891 C22.7585948,20.6225778 22.5718215,20.4268034 22.5718215,20.1207651 C22.5718215,20.0532567 22.5830729,19.9789974 22.6055757,19.8912364 C22.9768721,17.9492437 23.888236,16.5090636 25.3374172,15.5706963 C26.7888486,14.632329 28.487811,14.1080135 30.4275534,14 L31.2444056,14 C33.7309664,14 35.6729591,14.6435804 37.0726341,15.9307413 C37.2886611,16.1490186 37.4889361,16.3852982 37.6757095,16.6350794 C37.8624828,16.8871109 38.0132517,17.1076385 38.1190149,17.3056632 C38.2315289,17.503688 38.3260408,17.7872234 38.4115514,18.1607701 C38.5015627,18.5275659 38.5690711,18.784098 38.6095762,18.9258657 C38.6545818,19.0676335 38.6860858,19.375922 38.7085886,19.8439805 C38.7310914,20.312039 38.7400925,20.5910739 38.7400925,20.6765846 L38.7400925,28.5975747 C38.7400925,29.1668959 38.8211026,29.6844606 38.9876235,30.1502688 C39.1451431,30.6228279 39.3071634,30.96037 39.4601825,31.1673959 L40.2117765,32.1665208 C40.3422928,32.3622953 40.4075509,32.5378172 40.4075509,32.6908364 C40.4075509,32.864108 40.3220403,33.0171271 40.1465183,33.1476435 C38.3327916,34.7228404 37.351669,35.5711964 37.1986498,35.7017127 C36.9376172,35.8997375 36.6203275,35.9222403 36.2490311,35.7692212 C35.9429929,35.5081885 35.6774597,35.256157 35.447931,35.0153769 C35.2184023,34.7768471 35.0541318,34.6013252 34.9573697,34.4933117 C34.8583573,34.3807976 34.7008376,34.1715214 34.4848106,33.8542318 C34.264283,33.5346918 34.1112639,33.3231654 34.0235029,33.2129016 C32.7993499,34.5450681 31.59995,35.3731716 30.4230529,35.7017127 C29.6804601,35.9222403 28.7623453,36.0302538 27.6709589,36.0302538 C25.992249,36.0302538 24.6105763,35.5126891 23.5304413,34.4775597 C22.4503063,33.4424303 21.9102388,31.9729966 21.9102388,30.0737592 L21.9147393,30.0737592 Z M27.5449431,29.4166771 C27.5449431,30.2672834 27.7564696,30.9468684 28.1817727,31.4644331 C28.6093262,31.9752469 29.1786473,32.2295287 29.8987373,32.2295287 C29.9662458,32.2295287 30.056257,32.2205276 30.1777722,32.200275 C30.2970371,32.1777722 30.3802975,32.1665208 30.4253032,32.1665208 C31.3389174,31.9257407 32.0500063,31.3384173 32.551819,30.40005 C32.7903488,29.983748 32.9703713,29.5314414 33.0918865,29.0408801 C33.2111514,28.5525691 33.2764096,28.1542693 33.287661,27.848231 C33.2989124,27.5421928 33.3034129,27.0381298 33.3034129,26.3405426 L33.3034129,25.5236905 C32.0365046,25.5236905 31.0756345,25.6137017 30.4230529,25.7869734 C28.5013127,26.3315414 27.5426928,27.5421928 27.5426928,29.4189274 L27.5449431,29.4166771 Z" id="Shape" fill="#221F1F"></path>
                <path d="M41.2896612,39.9569946 C41.3346668,39.8669834 41.4021753,39.7814727 41.4854357,39.6937117 C42.032254,39.3246656 42.5565696,39.0726341 43.0606326,38.9421178 C43.8864858,38.7260908 44.6943368,38.6045756 45.479685,38.5820728 C45.6979622,38.5595699 45.9072384,38.5730716 46.1007626,38.615827 C47.0841355,38.7058382 47.6759595,38.8678585 47.8694837,39.1108889 C47.9594949,39.2391549 48,39.4349294 48,39.695962 L48,39.9254907 C48,40.6905863 47.7929741,41.5906988 47.3789224,42.6258282 C46.9626203,43.6609576 46.384298,44.4980623 45.6462058,45.1303913 C45.5336917,45.2204026 45.4369296,45.2609076 45.3491686,45.2609076 C45.304163,45.2609076 45.2591574,45.2496562 45.2186523,45.2294037 C45.0836355,45.1618952 45.0543818,45.0426303 45.11964,44.8693587 C45.9297412,42.9701213 46.3302913,41.6514564 46.3302913,40.9088636 C46.3302913,40.6680835 46.2852857,40.4925616 46.199775,40.3845481 C45.9814977,40.1257657 45.3716715,39.9929991 44.3657957,39.9929991 C43.9967496,39.9929991 43.560195,40.0155019 43.0606326,40.0605076 C42.5115639,40.128016 42.0097512,40.1910239 41.5529441,40.256282 C41.4179272,40.256282 41.3346668,40.2337792 41.2896612,40.1887736 C41.2446556,40.143768 41.2356545,40.1032629 41.2581573,40.0582573 C41.2581573,40.0357545 41.2671584,40.0042505 41.2896612,39.9614952 L41.2896612,39.9569946 Z" id="Path" fill="#FF9900"></path>
                <path d="M12.0675084,39.4011751 C12.1755219,39.2256532 12.3487936,39.2144018 12.5895737,39.3674209 C18.0442555,42.5313164 23.9804976,44.1155144 30.3960495,44.1155144 C34.6715839,44.1155144 38.8953619,43.3166646 43.0651331,41.7234654 L43.5376922,41.527691 C43.7447181,41.4376797 43.8909864,41.3746718 43.9787473,41.3319165 C44.3072884,41.2014002 44.5638205,41.2644081 44.7505938,41.527691 C44.9351169,41.7887236 44.8743593,42.0295037 44.5705713,42.247781 C44.1767721,42.5313164 43.6749594,42.8598575 43.0628829,43.2289036 C41.1883985,44.3427928 39.0933867,45.2046506 36.7800975,45.8167271 C34.4690586,46.424303 32.2120265,46.7325916 30.0067508,46.7325916 C26.6020753,46.7325916 23.384173,46.136267 20.3530441,44.9481185 C17.3151644,43.75997 14.6013252,42.0835104 12.200275,39.9232404 C12.0675084,39.8174772 12,39.7049631 12,39.5969496 C12,39.5294412 12.0225028,39.4664333 12.0675084,39.4011751 L12.0675084,39.4011751 Z" id="Path" fill="#FF9900"></path>
            </g>
        </g>
    </g>
</svg>