<?xml version="1.0" encoding="UTF-8"?>
<svg width="60px" height="60px" viewBox="0 0 60 60" version="1.1" xmlns="http://www.w3.org/2000/svg" xmlns:xlink="http://www.w3.org/1999/xlink">
    <!-- Generator: Sketch 46.2 (44496) - http://www.bohemiancoding.com/sketch -->
    <title>Basecamp</title>
    <desc>Created with Sketch.</desc>
    <defs></defs>
    <g id="Page-1" stroke="none" stroke-width="1" fill="none" fill-rule="evenodd">
        <g id="Social_icons" transform="translate(-722.000000, -1655.000000)">
            <g id="Basecamp" transform="translate(722.000000, 1655.000000)">
                <path d="M0,30 C0,13.4314567 13.4314567,0 30,0 C46.5685433,0 60,13.4314567 60,30 C60,46.5685433 46.5685433,60 30,60 C13.4314567,60 0,46.5685433 0,30 Z" id="back" fill="#FFFFFF"></path>
                <path d="M30.4237887,16 C21.0439026,16 13.695281,27.9480861 13,38.0396928 C15.9434352,43.1543955 23.041471,45.0769231 30.4237887,45.0769231 C37.805632,45.0769231 44.9041424,43.1543955 47.8461538,38.0396928 C47.1508727,27.9480861 39.8032003,16 30.4237887,16" id="Shape" fill="#B6DEFF"></path>
                <path d="M45.5630966,35.7112056 C45.5630966,35.7112056 43.4850943,31.2307413 41.3728156,28.6166228 C39.2591088,26.0015547 36.6779108,23.1538462 35.1516621,23.1538462 C33.6263654,23.1538462 29.3622951,30.6833242 27.406164,30.6833242 C25.449557,30.6833242 24.4326926,27.270157 22.0271609,27.270157 C19.620677,27.270157 15.7974382,35.5008798 15.7974382,35.5008798 L15.5384615,36.8962474 C15.5384615,36.8962474 16.8666693,42.7692308 30.7623878,42.7692308 C44.6585825,42.7692308 45.7692308,36.992627 45.7692308,36.992627 L45.5630966,35.7112056" id="Shape" fill="#66CC66"></path>
                <path d="M27.574383,33.7692308 C25.4133506,33.7692308 24.3054222,31.6707372 23.7047381,30.3754228 C23.1645991,29.2086547 23.0711594,27.3663152 21.5384615,27.3147091 C21.6891093,27.2560657 21.8340362,27.2213489 21.9699053,27.2213489 C24.3788391,27.2213489 25.3971416,30.5940452 27.3565159,30.5940452 C29.3154134,30.5940452 33.5855143,23.1538462 35.1129682,23.1538462 C35.4009151,23.1538462 35.7250939,23.2537744 36.0769231,23.431581 C35.8166267,23.3978025 35.4829133,23.4212598 35.225954,23.6750682 C34.7320582,24.1611043 30.2498109,33.7692308 27.574383,33.7692308" id="Shape" fill="#17AD49"></path>
            </g>
        </g>
    </g>
</svg>