<?xml version="1.0" encoding="UTF-8"?>
<svg width="60px" height="60px" viewBox="0 0 60 60" version="1.1" xmlns="http://www.w3.org/2000/svg" xmlns:xlink="http://www.w3.org/1999/xlink">
    <!-- Generator: Sketch 46.2 (44496) - http://www.bohemiancoding.com/sketch -->
    <title>Bittorrent</title>
    <desc>Created with Sketch.</desc>
    <defs>
        <path d="M0,30 C0,13.4314567 13.4314567,0 30,0 C46.5685433,0 60,13.4314567 60,30 C60,46.5685433 46.5685433,60 30,60 C13.4314567,60 0,46.5685433 0,30 Z" id="path-1"></path>
    </defs>
    <g id="Page-1" stroke="none" stroke-width="1" fill="none" fill-rule="evenodd">
        <g id="Social_icons" transform="translate(-322.000000, -1355.000000)">
            <g id="Bittorrent" transform="translate(322.000000, 1355.000000)">
                <mask id="mask-2" fill="white">
                    <use xlink:href="#path-1"></use>
                </mask>
                <use id="back" fill="#00853F" xlink:href="#path-1"></use>
                <path d="M14.0699265,57.1191839 C9.60619674,52.643003 7.15332433,46.6726867 7.16577546,40.2977087 C7.18445216,26.9999029 18.4091449,15.7565334 31.6695973,15.7565334 L31.6695973,19.8965338 C20.8371151,19.8965338 11.318227,29.4340986 11.2995503,40.3101598 C11.2933247,45.5769873 13.3104076,50.5076344 16.9959418,54.1993942 C20.7001527,57.9098306 25.6681531,59.9580413 30.9847852,59.9580413 L30.9847852,64.0918162 C24.5600027,64.0918162 18.5585585,61.6140415 14.0699265,57.1191839" id="path3942" fill="#99CEB2" mask="url(#mask-2)" transform="translate(19.417663, 39.924175) scale(1, -1) translate(-19.417663, -39.924175) "></path>
                <path d="M26.3367788,59.6932373 C21.5804475,58.410771 17.6583419,55.4287256 15.2926274,51.2949507 C10.3246269,42.6102883 12.9642662,32.0081519 21.5679964,26.0876401 C34.3366291,17.3095942 57.1346463,22.8565721 58.0933832,23.0931436 L57.0972929,27.1086327 C56.8793982,27.0526026 35.1459525,21.7795495 23.9150342,29.4930239 C17.1229433,34.1621973 15.0062514,42.4671003 18.8847781,49.2405145 C20.7026429,52.4093268 23.7282672,54.7065601 27.4138014,55.6964248 C31.1927191,56.7174174 35.1023736,56.2193723 38.426825,54.3018984 L40.4937124,57.8878235 C36.2105241,60.3593727 31.1802679,61.0006058 26.3367788,59.6932373" id="path3946" fill="#CCE7D9" mask="url(#mask-2)" transform="translate(35.446178, 40.751755) scale(1, -1) translate(-35.446178, -40.751755) "></path>
                <path d="M24.9260659,53.0179489 C20.7985166,50.6335577 18.4888322,46.2943392 18.4888322,41.8368351 C18.4888322,39.7699476 19.005554,37.6843835 20.0452233,35.7544585 L20.0327722,35.7420074 C20.0327722,35.7357818 20.0701255,35.6735262 20.0825767,35.6486239 L20.0763511,35.6486239 C20.0763511,35.6486239 20.1012534,35.6112706 20.1199301,35.5801427 C20.1448323,35.5303382 20.207088,35.4182781 20.2133135,35.4120525 L20.2133135,35.4120525 C20.8607722,34.2976764 23.3572236,30.5436611 28.8294948,28.5514804 C40.1039921,24.4363823 59.1977984,28.5701571 60.0071218,28.7506985 L59.1168661,32.7910898 C58.9300991,32.7475109 40.3841425,28.7382474 30.2426979,32.4362327 C25.9346073,34.0050749 24.1354192,36.8688346 23.8054642,37.4602632 L23.8054642,37.4602632 C23.8054642,37.4602632 23.7930131,37.4789399 23.7930131,37.4851655 C23.0023664,38.8610152 22.622607,40.3613763 22.622607,41.8430606 C22.622607,44.868685 24.1914492,47.813377 26.9929533,49.4382493 C29.0162617,50.6024299 31.3757507,50.9137081 33.6356306,50.3098283 C35.8892849,49.7059486 37.775631,48.255392 38.9460371,46.2320836 L42.5942179,48.1744597 L42.5257367,48.298971 C40.8074809,51.2810164 38.0308791,53.4101594 34.7064277,54.3066407 C31.3819762,55.1968965 27.9081112,54.7362047 24.9260659,53.0179489" id="path3950" fill="#FFFFFF" mask="url(#mask-2)" transform="translate(39.247977, 40.741986) scale(1, -1) translate(-39.247977, -40.741986) "></path>
            </g>
        </g>
    </g>
</svg>