<?xml version="1.0" encoding="UTF-8"?>
<svg width="60px" height="60px" viewBox="0 0 60 60" version="1.1" xmlns="http://www.w3.org/2000/svg" xmlns:xlink="http://www.w3.org/1999/xlink">
    <!-- Generator: Sketch 46.2 (44496) - http://www.bohemiancoding.com/sketch -->
    <title>Cloud</title>
    <desc>Created with Sketch.</desc>
    <defs></defs>
    <g id="Page-1" stroke="none" stroke-width="1" fill="none" fill-rule="evenodd">
        <g id="Social_icons" transform="translate(-922.000000, -1955.000000)">
            <g id="Cloud" transform="translate(922.000000, 1955.000000)">
                <path d="M0,30 C0,13.4314567 13.4314567,0 30,0 C46.5685433,0 60,13.4314567 60,30 C60,46.5685433 46.5685433,60 30,60 C13.4314567,60 0,46.5685433 0,30 Z" id="back" fill="#1899E2"></path>
                <path d="M42.7987826,28.8571304 C42.8535652,28.5433043 42.888,28.2216522 42.888,27.8929565 C42.888,24.8204348 40.3969565,22.3301739 37.3252174,22.3301739 C36.656087,22.3301739 36.0151304,22.4546087 35.4187826,22.6721739 C33.6078261,19.8641739 30.4593913,18 26.8695652,18 C21.2504348,18 16.6956522,22.5547826 16.6956522,28.173913 C16.6956522,28.4376522 16.7152174,28.6966957 16.7355652,28.9557391 C14.016,29.6381739 12,32.0916522 12,35.0217391 C12,38.4793043 14.8033043,41.2826087 18.2608696,41.2826087 L41.7391304,41.2826087 C45.1966957,41.2826087 48,38.4793043 48,35.0217391 C48,31.9265217 45.7507826,29.361913 42.7987826,28.8571304 Z" id="Shape" fill="#FFFFFF"></path>
            </g>
        </g>
    </g>
</svg>