<?xml version="1.0" encoding="UTF-8"?>
<svg width="60px" height="60px" viewBox="0 0 60 60" version="1.1" xmlns="http://www.w3.org/2000/svg" xmlns:xlink="http://www.w3.org/1999/xlink">
    <!-- Generator: Sketch 46.2 (44496) - http://www.bohemiancoding.com/sketch -->
    <title>Digg</title>
    <desc>Created with Sketch.</desc>
    <defs></defs>
    <g id="Page-1" stroke="none" stroke-width="1" fill="none" fill-rule="evenodd">
        <g id="Social_icons" transform="translate(-822.000000, -1455.000000)">
            <g id="Digg" transform="translate(822.000000, 1455.000000)">
                <circle id="Oval" fill="#000000" cx="30" cy="30" r="30"></circle>
                <g id="Group-6" transform="translate(12.000000, 20.000000)" fill="#FFFFFF">
                    <path d="M9,17 L0,17 L0,4.95674827 L5.53850422,4.95674827 L5.53850422,0 L9,0 L9,17 Z M3.46149578,14.1673291 L5.53794932,14.1673291 L5.53794932,7.79112254 L3.46149578,7.79112254 L3.46149578,14.1673291 Z" id="Combined-Shape"></path>
                    <polygon id="Path" points="11 17 15 17 15 5 11 5"></polygon>
                    <path d="M25,21 L16,21 L16,18.2169065 L21.5407238,18.2169065 L21.5407238,16.8253598 L16,16.8253598 L16,5 L25,5 L25,21 Z M19.4620507,14.0439388 L21.5407238,14.0439388 L21.5407238,7.78309349 L19.4620507,7.78309349 L19.4620507,14.0439388 Z" id="Combined-Shape"></path>
                    <polygon id="Path" points="11 4 15 4 15 0 11 0"></polygon>
                    <path d="M36,21 L27,21 L27,18.2169065 L32.5398705,18.2169065 L32.5398705,16.8253598 L27,16.8253598 L27,5 L36,5 L36,21 Z M30.4606846,14.0439388 L32.5398705,14.0439388 L32.5398705,7.78309349 L30.4606846,7.78309349 L30.4606846,14.0439388 Z" id="Combined-Shape"></path>
                </g>
            </g>
        </g>
    </g>
</svg>