<?xml version="1.0" encoding="UTF-8"?>
<svg width="60px" height="60px" viewBox="0 0 60 60" version="1.1" xmlns="http://www.w3.org/2000/svg" xmlns:xlink="http://www.w3.org/1999/xlink">
    <!-- Generator: Sketch 46.2 (44496) - http://www.bohemiancoding.com/sketch -->
    <title>Foursquare</title>
    <desc>Created with Sketch.</desc>
    <defs></defs>
    <g id="Page-1" stroke="none" stroke-width="1" fill="none" fill-rule="evenodd">
        <g id="Social_icons" transform="translate(-822.000000, -1155.000000)">
            <g id="Foursquare" transform="translate(822.000000, 1155.000000)">
                <path d="M0,30 C0,13.4314567 13.4314567,0 30,0 C46.5685433,0 60,13.4314567 60,30 C60,46.5685433 46.5685433,60 30,60 C13.4314567,60 0,46.5685433 0,30 Z" id="back" fill="#FFFFFF"></path>
                <path d="M38.1632702,18.6888314 L37.3940928,22.4443172 C37.3062092,22.8443264 36.932592,23.1998746 36.4710911,23.1998746 L29.7903145,23.1998746 C29.043108,23.1998746 28.4277829,23.8220767 28.4277829,24.5776341 L28.4277829,25.3998409 C28.4277829,26.1553983 29.043108,26.7776004 29.7903145,26.7776004 L35.4382349,26.7776004 C35.9656764,26.7776004 36.4051784,27.288692 36.2952959,27.8442448 C36.1854134,28.4220422 35.5920871,31.3553212 35.5261186,31.6664082 C35.4821767,31.9997399 35.1305584,32.4219656 34.6031169,32.4219656 L29.9881085,32.4219656 C29.0211371,32.4441821 28.823371,32.4663985 28.2519876,33.1774948 C27.6806043,33.888591 22.626066,40.2885135 22.626066,40.2885135 C22.5821242,40.3551629 22.5381824,40.3329465 22.5381824,40.2662971 L22.5381824,18.5110432 C22.5381824,17.9999798 22.9557135,17.5777259 23.4611841,17.5777259 L37.328208,17.5777259 C37.8116797,17.5777259 38.2951515,18.0666292 38.1632702,18.6888314 M39.1741834,14 L22.0546827,14 C19.7032367,14 19,15.7999853 19,16.9333072 L19,44.4439522 C19,45.799467 19.6812658,46.1994763 20.0548551,46.3549915 C20.4284723,46.510535 21.4173867,46.6216738 22.1206234,45.9105493 C22.1206234,45.9105493 30.2518432,36.3329384 30.3836966,36.1773949 C30.51555,36.0218232 30.5814627,36.0218232 30.6693743,36.0218232 L35.8117963,36.0218232 C38.0094459,36.0218232 38.426977,34.4885202 38.6687128,33.5552029 C38.8665069,32.777429 41.1300413,21.6665151 41.833278,18.1554668 C42.3607475,15.4444372 41.6794817,14 39.1741834,14" fill="#FA4778"></path>
            </g>
        </g>
    </g>
</svg>