<?xml version="1.0" encoding="UTF-8"?>
<svg width="60px" height="60px" viewBox="0 0 60 60" version="1.1" xmlns="http://www.w3.org/2000/svg" xmlns:xlink="http://www.w3.org/1999/xlink">
    <!-- Generator: Sketch 46.2 (44496) - http://www.bohemiancoding.com/sketch -->
    <title>GooglePlay</title>
    <desc>Created with Sketch.</desc>
    <defs></defs>
    <g id="Page-1" stroke="none" stroke-width="1" fill="none" fill-rule="evenodd">
        <g id="Social_icons" transform="translate(-822.000000, -1355.000000)">
            <g id="GooglePlay" transform="translate(822.000000, 1355.000000)">
                <circle id="Oval" fill="#FFFFFF" cx="30" cy="30" r="30"></circle>
                <g id="Google_Play_symbol_2016" transform="translate(17.000000, 12.000000)">
                    <g id="g3042">
                        <path d="M25.058281,24.0563634 C29.3538017,21.6749865 32.6343802,19.8560096 32.9327934,19.6903634 C33.8229752,19.1968404 34.7555868,17.9374173 32.9327934,16.9307327 C32.3469256,16.6065557 29.1545785,14.8433634 25.0532231,12.5769711 L19.412314,18.3344557 L25.058281,24.0563634 L25.058281,24.0563634 Z" id="path16" fill="#FFE300"></path>
                        <path d="M19.4120331,18.3344557 L1.3701157,36.7485025 C1.77755372,36.8008717 2.26760331,36.6915794 2.83127273,36.3790717 C3.9982314,35.7321409 16.5304628,28.7838255 25.058281,24.0557942 L19.4120331,18.3344557 L19.4120331,18.3344557 Z" id="path23" fill="#FF4E54"></path>
                        <path d="M19.4120331,18.3344557 L25.0529421,12.5769711 C25.0529421,12.5769711 4.08646281,0.990563545 2.83127273,0.296955852 C2.34880992,0.0302712455 1.82279339,-0.0627979853 1.35719008,0.0422250916 L19.4120331,18.3344557 L19.4120331,18.3344557 Z" id="path30" fill="#00F085"></path>
                        <path d="M19.4120331,18.3344557 L1.35690909,0.042509707 C0.611157025,0.211002015 0,0.864763545 0,2.17883278 L0,34.5538332 C0,35.7913409 0.48077686,36.6616948 1.36983471,36.7485025 L19.4120331,18.3344557 L19.4120331,18.3344557 Z" id="path37" fill="#00E0FF"></path>
                    </g>
                </g>
            </g>
        </g>
    </g>
</svg>