<?xml version="1.0" encoding="UTF-8"?>
<svg width="60px" height="60px" viewBox="0 0 60 60" version="1.1" xmlns="http://www.w3.org/2000/svg" xmlns:xlink="http://www.w3.org/1999/xlink">
    <!-- Generator: Sketch 46.2 (44496) - http://www.bohemiancoding.com/sketch -->
    <title>Hola Copy</title>
    <desc>Created with Sketch.</desc>
    <defs></defs>
    <g id="Page-1" stroke="none" stroke-width="1" fill="none" fill-rule="evenodd">
        <g id="Social_icons" transform="translate(-722.000000, -1755.000000)">
            <g id="Hola-Copy" transform="translate(722.000000, 1755.000000)">
                <path d="M0,30 C0,13.4314567 13.4314567,0 30,0 C46.5685433,0 60,13.4314567 60,30 C60,46.5685433 46.5685433,60 30,60 C13.4314567,60 0,46.5685433 0,30 Z" id="back" fill="#FFFFFF"></path>
                <g id="Tor-logo-2011-flat" transform="translate(16.000000, 9.000000)">
                    <g id="layer3">
                        <g id="layer5" transform="translate(0.236128, 0.000000)">
                            <path d="M16.177804,3.2172032 L15.0167651,7.7121084 C16.6613932,4.53743337 19.2734357,2.14854409 22.2727273,0.0422982319 C20.0798111,2.52555542 18.0805195,5.00904301 16.8550177,7.49230021 C18.9190083,4.66310381 21.6923259,3.09153276 24.820307,2.05417617 C20.6602125,5.6691581 17.3581393,9.54820331 14.842673,13.4460586 L12.8433813,12.5974378 C13.1978087,9.48536809 14.4040142,6.29797065 16.177804,3.2172032 L16.177804,3.2172032 Z" id="path2554" fill="#ABCD03"></path>
                            <path d="M10.8385195,11.7710212 L14.6439504,13.3098949 C14.6439504,14.2531137 14.5652893,17.1299611 15.1703684,17.9785818 C21.499268,25.9236929 20.4344746,41.8498186 13.8883117,42.2583626 C3.91982054,42.2583626 0.118063754,35.657442 0.118063754,29.5905033 C0.118063754,24.0580116 6.92231405,20.3801947 10.9858323,17.1111519 C12.0177096,16.2309985 11.8385195,14.2858111 10.8385195,11.7710212 L10.8385195,11.7710212 Z" id="path2534" fill="#FFFCDB"></path>
                            <path d="M14.6450933,13.2545378 L16.0165289,13.9364771 C15.8876033,14.8164004 16.0809917,16.7656733 16.9837072,17.2683551 C20.9827627,19.6887771 24.755608,22.3292374 26.2391972,24.9696977 C31.5279811,34.2743766 22.5305785,42.8871752 14.7586777,42.0698569 C18.9832349,39.0206224 20.2087367,32.7654083 18.6285714,25.9439889 C17.9837072,23.2719959 16.9837072,20.8515739 15.2099174,18.1167457 C14.4415089,16.7743137 14.7097922,15.1094427 14.6450933,13.2545378 Z" id="path2536" fill="#7D4698"></path>
                        </g>
                        <g id="layer4" transform="translate(0.000000, 10.817786)" fill="#000000">
                            <path d="M14.2210153,2.20700548 L17.0587957,2.58424697 C16.220307,5.28754253 18.70366,7.17351986 19.5097993,7.61382675 C21.3157048,8.58834811 23.0571452,9.594172 24.4439221,10.8200342 C27.0562007,13.1460883 28.5395537,16.4153612 28.5395537,19.8731397 C28.5395537,23.2993856 26.927039,26.599961 24.2181842,28.8003446 C21.6706045,30.8750578 18.155608,31.7552112 14.7371901,31.7552112 C12.6087367,31.7552112 10.7060213,31.6610735 8.64226682,31.0007282 C3.93412043,29.4604597 0.418890201,25.5313019 0.128689492,20.8158982 C-0.129397875,17.1380813 0.709090909,14.3404179 3.64391972,11.4170839 C5.15938607,9.87681541 8.2231405,8.11650853 10.3194805,6.70191044 C11.3515939,6.01026267 12.4479339,4.06121995 10.3515939,0.3836332 L10.7709563,0.0692269224 L13.8775891,2.09745353 L11.2547816,1.04374828 C11.4805195,1.35815456 12.0932704,2.77275264 12.2224321,3.18129667 C12.5126328,4.3443237 12.3837072,5.47627836 12.1256198,5.97896014 C10.8035419,8.30524436 8.54616293,8.93382675 6.90153483,10.2540569 C3.99905549,12.580111 0.838724911,14.4347858 1.19338843,20.8158982 C1.35466352,23.9592705 3.87012987,27.7942906 7.64297521,29.5861301 C9.77142857,30.5921842 12.2224321,31.0007282 14.705549,31.1263987 C16.9305785,31.2207666 21.1874876,29.931839 23.5093294,28.0458616 C25.9924463,26.0342138 27.3792231,22.9849793 27.3792231,19.8731397 C27.3792231,16.7295373 26.0892586,13.7433682 23.6706045,11.6371223 C22.2838276,10.4112601 19.9943329,8.93382675 18.5754427,8.14781105 C17.1565525,7.36202553 15.3827627,5.16164192 15.9631641,3.05562622 L14.2210153,2.20700548 Z" id="path2538"></path>
                            <path d="M13.3504132,6.85934375 C13.0602125,8.30547452 12.7376623,10.9144022 11.4476978,11.8889235 C10.8994097,12.2659349 10.3511216,12.6434065 9.77072019,13.0204179 C7.44887839,14.5609165 5.12680047,16.006587 4.06280992,19.7159366 C3.83707202,20.5019523 4.03069658,21.350573 4.22432113,22.1363586 C4.80472255,24.3995774 6.44935065,26.8515321 7.73931523,28.2976628 C7.73931523,28.3604981 7.9974026,28.5177012 7.9974026,28.5805364 C9.06162928,29.8066288 9.38417946,30.1523376 13.4151122,31.0322609 L13.3182999,31.4725678 C10.8996458,30.8439854 8.90035419,30.2782383 7.64250295,28.86341 C7.64250295,28.8321075 7.41676505,28.611839 7.41676505,28.611839 C6.06233766,27.102873 4.41747344,24.5883132 3.80495868,22.2307265 C3.57922078,21.2875077 3.38583235,20.5647875 3.64368359,19.590036 C4.74002361,15.7552461 7.12656434,14.2462801 9.54521842,12.6431764 C10.0935065,12.2974676 10.7383707,11.9828311 11.2543093,11.5742871 C12.2538371,10.8515669 12.801889,8.65095316 13.3504132,6.85934375 L13.3504132,6.85934375 Z" id="path2540"></path>
                            <path d="M14.3816411,12.8316222 C14.4139906,14.4662586 14.2502952,15.2862813 14.6694215,16.4495385 C14.9272727,17.1409561 15.7985832,18.0840598 16.0566706,18.995746 C16.4113341,20.2218384 16.7976387,21.5733734 16.7650531,22.3906916 C16.7650531,23.3339081 16.7045455,25.0934095 16.2854191,26.9796169 C15.9657922,28.538087 15.2291665,29.875453 13.9905549,30.6334966 C12.721778,30.3788322 11.2320567,29.9441022 10.3527155,29.2093467 C8.64362456,27.7634461 7.12987013,25.345671 6.93624557,23.2394251 C6.77520661,21.5106533 8.4174144,18.960991 10.7069067,17.6722935 C12.6417355,16.5721017 13.0917946,15.3182168 13.5109209,13.3063388 C12.9305195,15.0666457 12.3854191,16.5422952 10.5150531,17.4852839 C7.80619835,18.8683493 6.41623377,21.19009 6.54515939,23.3904714 C6.73854782,26.2194373 7.90088548,28.136372 10.1903778,29.6768707 C11.1577922,30.3369857 12.9651712,31.0345603 14.0938607,31.2232961 L14.0938607,31.0794426 C14.9498064,30.9231877 16.0580118,29.5528298 16.6100945,27.6988846 C17.0939197,26.0329456 17.2846517,23.9006911 17.2520661,22.5489305 C17.2197166,21.763145 16.8641086,20.0612979 16.2190083,18.5210293 C15.8643447,17.6724086 15.3194805,16.8238454 14.9645809,16.2265655 C14.5780401,15.6288253 14.5752656,14.340358 14.3816411,12.8316222 Z" id="path2542"></path>
                            <path d="M14.1897875,18.995746 C14.2219008,20.0959378 14.6752656,21.5055896 14.8686541,22.9517204 C15.0301653,24.0206074 14.9600354,25.0941575 14.927686,26.0373763 C14.8958205,27.1291049 14.52268,29.0852713 14.0126919,30.0365045 C13.5317639,29.8215229 13.3437568,29.5763527 13.0312869,29.180576 C12.64451,28.6461313 12.3817591,28.1116867 12.1236718,27.4831043 C11.9302834,27.0114949 11.7041913,26.4717564 11.6071429,25.8431741 C11.4782172,24.9001854 11.5143447,23.4249387 12.6106848,21.915975 C13.4491736,20.7214129 13.6413223,20.630555 13.931523,19.2474897 C13.5442739,20.4733519 13.255608,20.5983319 12.3524203,21.6354606 C11.3528926,22.7671851 11.1865407,24.4340999 11.1865407,25.7856326 C11.1865407,26.35161 11.4180638,26.9795594 11.6440378,27.5766091 C11.901889,28.2054217 12.1231995,28.8314722 12.477863,29.3028515 C13.0110295,30.0671902 13.6934427,30.501835 14.0274498,30.5831479 C14.029575,30.5836082 14.0326446,30.5826876 14.034817,30.5831479 C14.0419717,30.5847591 14.0501417,30.5890171 14.0569421,30.5903291 L14.0569421,30.5543657 C14.6826375,29.8743712 15.0591712,29.1988419 15.1859268,28.5188382 C15.3472019,27.70152 15.3842739,26.882418 15.4810862,25.9078966 C15.5776623,25.0905784 15.5075915,23.9896961 15.2818536,22.8582041 C14.9595396,21.443606 14.4155018,20.0013282 14.1897639,18.9957345 L14.1897875,18.995746 Z" id="path2544"></path>
                            <path d="M14.2854782,5.53911358 C14.3178276,7.17351986 14.4467532,10.2229846 14.898229,11.4173141 C15.0271547,11.8258581 16.220307,13.6176977 17.0585596,15.7865486 C17.6391972,17.2955146 17.7681228,18.67858 17.8649351,19.087124 C18.2519481,20.8789636 17.7681228,23.8966655 17.1230224,26.7571641 C16.8007084,28.2974327 15.7041322,30.2149427 14.4465171,30.9694257 L14.1886659,31.4095024 C14.898229,31.3779697 16.6394333,29.7120308 17.2521842,27.6373176 C18.2842975,24.1167038 18.7034238,22.4820674 18.2198347,18.5842121 C18.1553719,18.2067404 17.9940968,16.9182731 17.3813459,15.5349776 C16.4783943,13.4287317 15.1884298,11.4170839 15.0273908,11.0083097 C14.736954,10.3484248 14.349941,7.48792614 14.2854782,5.53911358 L14.2854782,5.53911358 Z" id="path2550"></path>
                            <path d="M14.8905573,3.30357447 C14.7948902,4.983351 14.7693034,5.60194881 15.0916175,6.82781105 C15.446281,8.17957391 17.2524203,10.1283865 17.9940968,12.3603028 C19.412987,16.6353995 19.0583235,22.2307265 18.0262102,26.599961 C17.6394333,28.1399994 15.8009445,30.3721458 13.962928,31.094866 L15.3173554,31.4092723 C16.0590319,31.3777396 17.9615112,29.6489654 18.7034238,27.6686201 C19.89634,24.5565504 20.122314,20.8474309 19.6384888,16.9495757 C19.6061393,16.5723342 18.961039,13.2089235 18.3485242,11.7943254 C17.477686,9.68830975 15.929634,7.80210225 15.768595,7.39378839 C15.4786305,6.70214061 14.841438,5.26622459 14.8905573,3.30357447 Z" id="path2552"></path>
                            <rect id="rect2556" x="13.8653105" y="2.12140457" width="1" height="29.0052243"></rect>
                        </g>
                    </g>
                </g>
            </g>
        </g>
    </g>
</svg>