<?xml version="1.0" encoding="UTF-8"?>
<svg width="60px" height="60px" viewBox="0 0 60 60" version="1.1" xmlns="http://www.w3.org/2000/svg" xmlns:xlink="http://www.w3.org/1999/xlink">
    <!-- Generator: Sketch 46.2 (44496) - http://www.bohemiancoding.com/sketch -->
    <title>Hola</title>
    <desc>Created with Sketch.</desc>
    <defs>
        <radialGradient cx="59.7633788%" cy="87.8167352%" fx="59.7633788%" fy="87.8167352%" r="149.071833%" gradientTransform="translate(0.597634,0.878167),scale(1.000000,0.730487),translate(-0.597634,-0.878167)" id="radialGradient-1">
            <stop stop-color="#EFAC00" offset="5%"></stop>
            <stop stop-color="#EB9100" offset="17%"></stop>
            <stop stop-color="#E15600" offset="40%"></stop>
            <stop stop-color="#C82400" offset="63%"></stop>
            <stop stop-color="#B91200" offset="72%"></stop>
            <stop stop-color="#AE0500" offset="81%"></stop>
            <stop stop-color="#AA0000" offset="90%"></stop>
        </radialGradient>
    </defs>
    <g id="Page-1" stroke="none" stroke-width="1" fill="none" fill-rule="evenodd">
        <g id="Social_icons" transform="translate(-922.000000, -1355.000000)">
            <g id="Hola" transform="translate(922.000000, 1355.000000)">
                <path d="M0,30 C0,13.4314567 13.4314567,0 30,0 C46.5685433,0 60,13.4314567 60,30 C60,46.5685433 46.5685433,60 30,60 C13.4314567,60 0,46.5685433 0,30 Z" id="back" fill="#FFFFFF"></path>
                <g id="Group" transform="translate(14.000000, 9.000000)">
                    <path d="M31.19,27.29 C31.1702732,23.6823051 30.5622928,20.1019762 29.39,16.69 C28.49,14.09 30.29,10.99 30.29,10.99 C30.29,10.99 29.39,11.09 27.49,12.79 C26.329587,13.8964596 25.6175641,15.3917076 25.49,16.99 C23.09,11.49 18.29,7.89 16.49,5.49 C14.69,3.09 16,0 16,0 C12.4,1.6 10.6,5.4 10,10 C9.8637048,12.5263423 8.57300257,14.8496063 6.5,16.3 C6,12 1.1,11 1.1,11 C2.1,11.3 3.9,16.2 2,19.9 C0.768909738,22.2142967 0.0847209022,24.7800048 1.90403249e-15,27.4 C1.90403249e-15,35.8 5.4,42.69 15.49,42.69 C19.6494838,42.8533701 23.6921153,41.2935254 26.6638375,38.3785876 C29.6355598,35.4636499 31.2730999,31.4518613 31.19,27.29 Z" id="Body" fill="url(#radialGradient-1)"></path>
                    <ellipse id="Oval" fill="#333333" cx="21.09" cy="25.39" rx="2.2" ry="3.1"></ellipse>
                    <ellipse id="Oval" fill="#333333" cx="10" cy="25.39" rx="2.2" ry="3.1"></ellipse>
                    <path d="M15.49,40.38 C9.23349506,40.446814 4.09869647,35.4460832 4,29.19 C4,28.6377153 4.44771525,28.19 5,28.19 C5.27030296,28.1721181 5.53517976,28.2717185 5.72673061,28.4632694 C5.91828145,28.6548202 6.01788194,28.919697 6,29.19 C6.08215568,34.3699444 10.3194801,38.518062 15.5,38.49 C17.9938622,38.5193295 20.3969415,37.5553267 22.1791506,35.8106378 C23.9613598,34.0659488 24.976268,31.6839217 25,29.19 C25,28.6377153 25.4477153,28.19 26,28.19 C26.270303,28.1721181 26.5351798,28.2717185 26.7267306,28.4632694 C26.9182815,28.6548202 27.0178819,28.919697 27,29.19 C26.9684967,32.2037141 25.7354357,35.0802068 23.5744739,37.1810898 C21.4135121,39.2819727 18.5034046,40.4334605 15.49,40.38 L15.49,40.38 Z" id="Shape" fill="#333333"></path>
                </g>
            </g>
        </g>
    </g>
</svg>