<?xml version="1.0" encoding="UTF-8"?>
<svg width="60px" height="60px" viewBox="0 0 60 60" version="1.1" xmlns="http://www.w3.org/2000/svg" xmlns:xlink="http://www.w3.org/1999/xlink">
    <!-- Generator: Sketch 46.2 (44496) - http://www.bohemiancoding.com/sketch -->
    <title>HTML5</title>
    <desc>Created with Sketch.</desc>
    <defs></defs>
    <g id="Page-1" stroke="none" stroke-width="1" fill="none" fill-rule="evenodd">
        <g id="Social_icons" transform="translate(-522.000000, -1655.000000)">
            <g id="HTML5" transform="translate(522.000000, 1655.000000)">
                <path d="M0,30 C0,13.4314567 13.4314567,0 30,0 C46.5685433,0 60,13.4314567 60,30 C60,46.5685433 46.5685433,60 30,60 C13.4314567,60 0,46.5685433 0,30 Z" id="back" fill="#FFFFFF"></path>
                <polygon id="Shape" fill="#E44D26" points="16.8963675 46.4013127 14 14 45.826087 14 42.9266486 46.3962371 29.8935653 50"></polygon>
                <polygon id="Shape" fill="#F16529" points="29.9130435 47.1304348 40.4722173 44.2254357 42.9565217 16.6086957 29.9130435 16.6086957"></polygon>
                <polygon id="Shape" fill="#EBEBEB" points="29.9130435 28.5535476 24.6817688 28.5535476 24.3204809 24.4900181 29.9130435 24.4900181 29.9130435 20.5217391 29.8993755 20.5217391 20 20.5217391 20.0946313 21.586361 21.0662781 32.5217391 29.9130435 32.5217391"></polygon>
                <polygon id="Shape" fill="#EBEBEB" points="29.9130435 39.0245477 29.8958418 39.0292454 25.5242001 37.8188304 25.2447379 34.6086957 23.1204627 34.6086957 21.3043478 34.6086957 21.8542823 40.9285405 29.8949774 43.2173913 29.9130435 43.2122504"></polygon>
                <polygon id="Shape" fill="#FFFFFF" points="29.9130435 28.6086957 29.9130435 32.6238809 34.7498661 32.6238809 34.2939326 37.8313311 29.9130435 39.0400425 29.9130435 43.2173913 37.9655341 40.9360481 38.0246125 40.2576843 38.9476379 29.686898 39.0434783 28.6086957 37.9849962 28.6086957"></polygon>
                <polygon id="Shape" fill="#FFFFFF" points="29.9130435 20.5217391 29.9130435 22.9520639 29.9130435 24.4252178 29.9130435 24.4347826 39.459034 24.4347826 39.459034 24.4347826 39.4717571 24.4347826 39.5511458 23.5552505 39.731448 21.5715422 39.826087 20.5217391"></polygon>
            </g>
        </g>
    </g>
</svg>