<?xml version="1.0" encoding="UTF-8"?>
<svg width="60px" height="60px" viewBox="0 0 60 60" version="1.1" xmlns="http://www.w3.org/2000/svg" xmlns:xlink="http://www.w3.org/1999/xlink">
    <!-- Generator: Sketch 46.2 (44496) - http://www.bohemiancoding.com/sketch -->
    <title>IE</title>
    <desc>Created with Sketch.</desc>
    <defs></defs>
    <g id="Page-1" stroke="none" stroke-width="1" fill="none" fill-rule="evenodd">
        <g id="Social_icons" transform="translate(-822.000000, -1555.000000)">
            <g id="IE" transform="translate(822.000000, 1555.000000)">
                <path d="M0,30 C0,13.4314567 13.4314567,0 30,0 C46.5685433,0 60,13.4314567 60,30 C60,46.5685433 46.5685433,60 30,60 C13.4314567,60 0,46.5685433 0,30 Z" id="back" fill="#FFFFFF"></path>
                <path d="M46.8383333,30.2808962 C46.8383333,27.4795755 46.1071667,24.8478066 44.825,22.5609198 C50.2901667,10.3087736 38.969,12.1033491 38.3386667,12.2255189 C35.9401667,12.6904245 33.7211667,13.436816 31.6743333,14.3829717 C31.3725,14.3661321 31.0688333,14.3568868 30.7628333,14.3568868 C23.124,14.3568868 16.7298333,19.6346226 15.0933333,26.7097406 C19.1195,22.2355189 21.9371667,20.4302123 23.6245,19.7077594 C23.3551667,19.9461557 23.0915,20.1871934 22.8321667,20.4300472 C22.7458333,20.5107783 22.6626667,20.5926651 22.5775,20.6738915 C22.4065,20.8368396 22.2358333,20.9999528 22.0691667,21.1645519 C21.97,21.2624528 21.8735,21.3611792 21.7758333,21.4597406 C21.628,21.6088208 21.4805,21.7577358 21.3361667,21.9076415 C21.2336667,22.0141274 21.1336667,22.1209434 21.033,22.2275943 C20.8981667,22.370566 20.7641667,22.5137028 20.6326667,22.6573349 C20.5305,22.7689387 20.43,22.8805425 20.3296667,22.9924764 C20.205,23.1314858 20.0815,23.2704953 19.9596667,23.4098349 C19.8586667,23.5254009 19.7585,23.640967 19.6595,23.7566981 C19.544,23.8917453 19.43,24.0267925 19.3171667,24.1618396 C19.2173333,24.2813679 19.1178333,24.4007311 19.0201667,24.5200943 C18.9145,24.6491981 18.8111667,24.7781368 18.708,24.9069104 C18.608,25.0317217 18.508,25.1563679 18.4103333,25.2810142 C18.3173333,25.399717 18.227,25.5179245 18.136,25.6362972 C18.0333333,25.7700236 17.9298333,25.90375 17.8298333,26.036816 C17.7583333,26.1320755 17.6896667,26.2263443 17.6195,26.3212736 C16.9843333,27.1797642 16.404,28.0217453 15.8798333,28.8305425 C15.8785,28.8325236 15.8771667,28.8345047 15.876,28.8364858 C15.738,29.0494575 15.6048333,29.2592925 15.4743333,29.4673113 C15.4673333,29.4785377 15.46,29.4899292 15.453,29.5013208 C15.3223333,29.7101651 15.1961667,29.9153774 15.0731667,30.1184434 C15.0688333,30.1255425 15.0643333,30.1328066 15.06,30.1399057 C14.7293333,30.686533 14.4226667,31.2135142 14.1465,31.7092925 C12.6986667,34.3083726 11.9938333,36.1242453 11.9633333,36.2320519 C7.39133333,52.423184 21.6606667,45.5858019 23.6518333,44.5651887 C25.7958333,45.6143632 28.2095,46.2049057 30.7628333,46.2049057 C37.7528333,46.2049057 43.7,41.7851651 45.9136667,35.6131132 L37.467,35.6131132 C36.2171667,37.7046934 33.811,39.1213679 31.0466667,39.1213679 C26.9965,39.1213679 23.7133333,36.0816509 23.7133333,32.3318632 L46.7066667,32.3318632 C46.7938333,31.6602594 46.839,30.9757783 46.839,30.2808962 L46.8383333,30.2808962 Z M43.8353333,14.6108019 C45.2196667,15.5363208 46.33,16.9898113 44.4231667,21.8846934 C42.5943333,18.9712736 39.8428333,16.6858726 36.5725,15.4296698 C38.0601667,14.7179481 41.7443333,13.2126179 43.8353333,14.6108019 L43.8353333,14.6108019 Z M14.4153333,44.5325 C13.2878333,43.3870755 13.0885,40.5973113 15.5765,35.5137264 C16.8321667,39.0898349 19.3378333,42.0862972 22.5765,43.9880189 C20.9658333,44.8661557 16.6898333,46.8433255 14.4153333,44.5325 L14.4153333,44.5325 Z M23.6771667,27.9768396 C23.8056667,24.3323821 27.0076667,21.4143396 30.9418333,21.4143396 C34.8758333,21.4143396 38.078,24.3323821 38.2065,27.9768396 L23.6771667,27.9768396 L23.6771667,27.9768396 Z" id="svg" fill="#1EBBEE"></path>
            </g>
        </g>
    </g>
</svg>