<?xml version="1.0" encoding="UTF-8"?>
<svg width="60px" height="60px" viewBox="0 0 60 60" version="1.1" xmlns="http://www.w3.org/2000/svg" xmlns:xlink="http://www.w3.org/1999/xlink">
    <!-- Generator: Sketch 46.2 (44496) - http://www.bohemiancoding.com/sketch -->
    <title>Kaixin001</title>
    <desc>Created with Sketch.</desc>
    <defs></defs>
    <g id="Page-1" stroke="none" stroke-width="1" fill="none" fill-rule="evenodd">
        <g id="Social_icons" transform="translate(-622.000000, -552.000000)">
            <g id="Kaixin001" transform="translate(622.000000, 552.000000)">
                <path d="M0,30 C0,13.4314567 13.4314567,0 30,0 C46.5685433,0 60,13.4314567 60,30 C60,46.5685433 46.5685433,60 30,60 C13.4314567,60 0,46.5685433 0,30 Z" id="back" fill="#E94543"></path>
                <g id="Page-1" transform="translate(11.000000, 11.000000)">
                    <path d="M32.9926,13.984 C26.8876,14.063 25.8646,11.682 25.6036,10.563 C25.2906,9.218 25.3916,9.62 24.5826,5.506 C23.6706,-0.43 20.0846,0.932 20.0846,0.932 C17.3466,1.39 13.3256,5.253 12.4136,6.622 C11.0446,7.993 10.8186,9.313 6.9356,7.505 C-0.5234,3.392 0.0956,10.901 0.0956,10.901 C0.9376,16.579 2.8986,19.052 4.9736,21.039 C3.7446,26.268 4.0526,29.535 4.7826,32.727 C6.1726,38.797 9.9496,36.035 11.2476,35.084 C12.5446,34.131 15.4396,31.107 15.4396,31.107 C15.4396,31.107 17.0266,33.151 21.0836,35.582 C28.3496,39.936 29.8786,36.13 29.7056,33.015 C29.5646,30.476 28.2516,25.182 28.2516,25.182 C32.8646,24.269 35.3866,21.193 35.3866,21.193 C42.1906,14.273 32.9926,13.984 32.9926,13.984" id="Fill-1" fill="#A32025"></path>
                    <path d="M32.6185,13.0704 C26.5675,13.1484 25.5535,10.7884 25.2955,9.6794 C24.9845,8.3464 25.0855,8.7444 24.2825,4.6674 C23.3785,-1.2156 19.8245,0.1334 19.8245,0.1334 C17.1095,0.5874 13.1255,4.4164 12.2215,5.7734 C10.8645,7.1324 10.6395,8.4404 6.7915,6.6494 C-0.6015,2.5714 0.0125,10.0154 0.0125,10.0154 C0.8475,15.6424 2.7905,18.0944 4.8475,20.0634 C3.6285,25.2464 3.9325,28.4854 4.6575,31.6484 C6.0355,37.6644 9.7785,34.9264 11.0645,33.9844 C12.3505,33.0404 15.2215,30.0424 15.2215,30.0424 C15.2215,30.0424 16.7935,32.0684 20.8145,34.4774 C28.0165,38.7934 29.5325,35.0204 29.3605,31.9344 C29.2215,29.4174 27.9195,24.1694 27.9195,24.1694 C32.4925,23.2654 34.9905,20.2164 34.9905,20.2164 C41.7355,13.3564 32.6185,13.0704 32.6185,13.0704" id="Fill-2" fill="#F5D53A"></path>
                    <path d="M8.6127,18.7438 C8.6127,18.7438 9.6787,23.3948 14.2067,25.0798 C18.6367,26.7288 23.5577,22.3118 23.5577,22.3118 C23.5577,22.3118 19.3807,28.5008 13.6317,26.4658 C9.1887,24.8928 8.6127,18.7438 8.6127,18.7438" id="Fill-3" fill="#764921"></path>
                    <path d="M17.7279,14.2364 C17.0059,16.9354 15.0969,18.7694 13.4649,18.3324 C11.8329,17.8954 11.0959,15.3534 11.8189,12.6544 C12.5399,9.9564 14.4499,8.1214 16.0819,8.5584 C17.7139,8.9964 18.4519,11.5374 17.7279,14.2364" id="Fill-4" fill="#FFFFFF"></path>
                    <path d="M23.4828,15.6847 C22.7598,18.3837 20.8518,20.2177 19.2198,19.7807 C17.5868,19.3437 16.8498,16.8017 17.5728,14.1027 C18.2948,11.4047 20.2038,9.5697 21.8358,10.0067 C23.4678,10.4447 24.2058,12.9857 23.4828,15.6847" id="Fill-5" fill="#FFFFFF"></path>
                    <path d="M23.1205,13.6695 C22.8955,15.0405 22.0655,16.0455 21.2665,15.9145 C20.4675,15.7845 20.0005,14.5675 20.2245,13.1955 C20.4485,11.8245 21.2775,10.8195 22.0775,10.9505 C22.8775,11.0815 23.3445,12.2975 23.1205,13.6695" id="Fill-6" fill="#313638"></path>
                    <path d="M17.2387,12.4503 C17.0147,13.8213 16.1847,14.8263 15.3847,14.6963 C14.5857,14.5653 14.1187,13.3483 14.3427,11.9773 C14.5667,10.6063 15.3967,9.6003 16.1957,9.7313 C16.9957,9.8623 17.4637,11.0783 17.2387,12.4503" id="Fill-7" fill="#313638"></path>
                    <path d="M16.9847,11.756 C16.9847,12.134 16.7167,12.442 16.3867,12.442 C16.0577,12.442 15.7907,12.134 15.7907,11.756 C15.7907,11.377 16.0577,11.07 16.3867,11.07 C16.7167,11.07 16.9847,11.377 16.9847,11.756" id="Fill-8" fill="#FFFFFF"></path>
                    <path d="M22.8666,12.8995 C22.8666,13.2785 22.5986,13.5855 22.2696,13.5855 C21.9396,13.5855 21.6726,13.2785 21.6726,12.8995 C21.6726,12.5215 21.9396,12.2135 22.2696,12.2135 C22.5986,12.2135 22.8666,12.5215 22.8666,12.8995" id="Fill-9" fill="#FFFFFF"></path>
                    <path d="M9.9154,14.9381 C9.9154,16.3161 8.8744,17.4341 7.5914,17.4341 C6.3074,17.4341 5.2674,16.3161 5.2674,14.9381 C5.2674,13.5591 6.3074,12.4421 7.5914,12.4421 C8.8744,12.4421 9.9154,13.5591 9.9154,14.9381" id="Fill-10" fill="#EF7B1D"></path>
                    <path d="M28.6644,19.6061 C28.6644,20.9841 27.6234,22.1021 26.3404,22.1021 C25.0564,22.1021 24.0164,20.9841 24.0164,19.6061 C24.0164,18.2271 25.0564,17.1101 26.3404,17.1101 C27.6234,17.1101 28.6644,18.2271 28.6644,19.6061" id="Fill-11" fill="#EF7B1D"></path>
                </g>
            </g>
        </g>
    </g>
</svg>