<?xml version="1.0" encoding="UTF-8"?>
<svg width="60px" height="60px" viewBox="0 0 60 60" version="1.1" xmlns="http://www.w3.org/2000/svg" xmlns:xlink="http://www.w3.org/1999/xlink">
    <!-- Generator: Sketch 46.2 (44496) - http://www.bohemiancoding.com/sketch -->
    <title>Mastercard</title>
    <desc>Created with Sketch.</desc>
    <defs></defs>
    <g id="Page-1" stroke="none" stroke-width="1" fill="none" fill-rule="evenodd">
        <g id="Social_icons" transform="translate(-422.000000, -954.000000)">
            <g id="Mastercard" transform="translate(422.000000, 954.000000)">
                <circle id="Oval" fill="#FFFFFF" cx="30" cy="30" r="30"></circle>
                <g id="g3110" transform="translate(12.000000, 19.000000)">
                    <path d="M35.9736305,11.1445924 C35.9736305,17.2982476 30.994537,22.2867716 24.8525128,22.2867716 C18.7104886,22.2867716 13.7313936,17.2982476 13.7313936,11.1445924 C13.7313936,4.99093624 18.7104886,0.00241261301 24.8525128,0.00241261301 C30.994537,0.00241261301 35.9736305,4.99093624 35.9736305,11.1445924 L35.9736305,11.1445924 Z" id="path2997" fill="#F79F1A"></path>
                    <path d="M22.2540437,11.1445924 C22.2540437,17.2982476 17.2749503,22.2867716 11.132926,22.2867716 C4.99090183,22.2867716 0.0118068562,17.2982476 0.0118068562,11.1445924 C0.0118068562,4.99093624 4.99090183,0.00241261301 11.132926,0.00241261301 C17.2749503,0.00241261301 22.2540437,4.99093624 22.2540437,11.1445924 L22.2540437,11.1445924 Z" id="path2995" fill="#EA001B"></path>
                    <path d="M17.9927419,2.3733871 C15.3979037,4.41315778 13.7322581,7.58283794 13.7322581,11.1435484 C13.7322581,14.7042588 15.3979037,17.8763582 17.9927419,19.916129 C20.5875801,17.8763582 22.2532258,14.7042588 22.2532258,11.1435484 C22.2532258,7.58283794 20.5875801,4.41315778 17.9927419,2.3733871 L17.9927419,2.3733871 Z" id="path2999" fill="#FF5F01"></path>
                </g>
            </g>
        </g>
    </g>
</svg>