<?xml version="1.0" encoding="UTF-8"?>
<svg width="60px" height="60px" viewBox="0 0 60 60" version="1.1" xmlns="http://www.w3.org/2000/svg" xmlns:xlink="http://www.w3.org/1999/xlink">
    <!-- Generator: Sketch 46.2 (44496) - http://www.bohemiancoding.com/sketch -->
    <title>Miliao</title>
    <desc>Created with Sketch.</desc>
    <defs></defs>
    <g id="Page-1" stroke="none" stroke-width="1" fill="none" fill-rule="evenodd">
        <g id="Social_icons" transform="translate(-522.000000, -352.000000)">
            <g id="Miliao" transform="translate(522.000000, 352.000000)">
                <path d="M0,30 C0,13.4314567 13.4314567,0 30,0 C46.5685433,0 60,13.4314567 60,30 C60,46.5685433 46.5685433,60 30,60 C13.4314567,60 0,46.5685433 0,30 Z" id="back" fill="#FFFFFF"></path>
                <g id="Page-1" transform="translate(13.000000, 15.000000)">
                    <path d="M35,13.3254849 C35,5.96675593 27.6138096,0 18.500505,0 C9.38821045,0 2,5.96675593 2,13.3254849 C2,20.684214 9.38821045,26.6509699 18.500505,26.6509699 C19.3650721,26.6509699 20.207419,26.5801058 21.0366358,26.4768467 C22.532458,29.0056822 25.4039115,30.7813337 28.7591589,31 C27.8875218,29.8104957 27.3764576,28.3891647 27.3764576,26.8595128 C27.3764576,25.9170204 27.544119,25.1010711 27.8945919,24.2719613 C32.186117,21.8666318 35,17.8628111 35,13.3254849" id="Fill-1" fill="#4CB350"></path>
                    <path d="M19.1548575,9 L19.0791494,9 L16.4613959,9 L14.5395747,9 L11.9218212,9 L10,9 L10,10.969 L10,18 L11.9218212,18 L11.9218212,10.969 L13.4777199,10.969 C14.0455308,10.969 14.4988088,11.43 14.5288979,12.007 L14.5395747,12.063 L14.5395747,18 L16.4613959,18 L16.4613959,10.969 L18.0172946,10.969 C18.5851054,10.969 19.0383835,11.43 19.0684726,12.007 L19.0791494,12.063 L19.0791494,18 L21,18 L21,10.897 C20.9970881,9.849 20.1730345,9 19.1548575,9" id="Fill-2" fill="#FFFFFF"></path>
                    <path d="M26,9.70712296 C26,10.4222045 25.5524543,11 25,11 C24.4475457,11 24,10.4222045 24,9.70712296 L24,9.29287704 C24,8.57898926 24.4475457,8 25,8 C25.5524543,8 26,8.57898926 26,9.29287704 L26,9.70712296 Z" id="Fill-3" fill="#FFFFFF"></path>
                    <polygon id="Fill-4" fill="#FFFFFF" points="24 18 26 18 26 12 24 12"></polygon>
                    <path d="M1.37469925,14.0095785 C1.37469925,13.66966 1.40711663,13.33483 1.43852096,13 C0.522730151,14.4014009 0,15.9951509 0,17.6896552 C0,21.1458333 2.15575535,24.1928879 5.44004052,26.0013769 C5.48765354,26.2832854 5.52412308,26.5682471 5.52412308,26.8776341 C5.52412308,28.0307112 5.13916677,29.1023707 4.48271496,30 C6.59187033,29.86159 8.44776497,28.9039152 9.65835127,27.4811422 C10.5457769,27.6429598 11.4646068,27.7376078 12.412815,27.7376078 C13.6598708,27.7376078 14.8623528,27.5849497 16,27.3071121 C7.76801317,26.5346624 1.37469925,20.8791906 1.37469925,14.0095785" id="Fill-5" fill="#4CB351"></path>
                </g>
            </g>
        </g>
    </g>
</svg>