<?xml version="1.0" encoding="UTF-8"?>
<svg width="60px" height="60px" viewBox="0 0 60 60" version="1.1" xmlns="http://www.w3.org/2000/svg" xmlns:xlink="http://www.w3.org/1999/xlink">
    <!-- Generator: Sketch 46.2 (44496) - http://www.bohemiancoding.com/sketch -->
    <title>Outlook</title>
    <desc>Created with Sketch.</desc>
    <defs></defs>
    <g id="Page-1" stroke="none" stroke-width="1" fill="none" fill-rule="evenodd">
        <g id="Social_icons" transform="translate(-622.000000, -1355.000000)">
            <g id="Outlook" transform="translate(622.000000, 1355.000000)">
                <path d="M0,30 C0,13.4314567 13.4314567,0 30,0 C46.5685433,0 60,13.4314567 60,30 C60,46.5685433 46.5685433,60 30,60 C13.4314567,60 0,46.5685433 0,30 Z" id="back" fill="#FFFFFF"></path>
                <g id="Outlook.com_icon" transform="translate(13.000000, 12.000000)" fill="#0072C6">
                    <path d="M22,8 L22,15.3641625 L24.4012995,16.9846178 C24.4646305,17.0044139 24.6018474,17.0058287 24.6651784,16.9846178 L35,9.51723249 C35,8.63347624 34.2307922,8 33.7967131,8 L22,8 Z" id="path3"></path>
                    <path d="M22.0013192,17.3927246 L24.1923898,18.9414533 C24.5010656,19.1749163 24.8730597,18.9414533 24.8730597,18.9414533 C24.5023848,19.1749163 35,12 35,12 L35,24.9924895 C35,26.4068412 34.1201421,27 33.1307973,27 L22,27 L22,17.3927246 L22.0013192,17.3927246 Z" id="path5"></path>
                    <path d="M10.5517241,14 C9.77103448,14 9.14896552,14.3677843 8.68965517,15.1019703 C8.23034483,15.8361562 8,16.8081576 8,18.0179744 C8,19.2457656 8.23034483,20.2163844 8.68965517,20.9298306 C9.14896552,21.6446595 9.75172414,22 10.4965517,22 C11.2648276,22 11.8744828,21.6529554 12.3241379,20.9588662 C12.7737931,20.264777 13,19.3010716 13,18.0691324 C13,16.7846526 12.782069,15.7849983 12.3448276,15.0701694 C11.9075862,14.3567231 11.3103448,14 10.5517241,14 Z" id="path25"></path>
                    <path d="M1.2033385e-15,4.05633803 L1.2033385e-15,31.6056338 L21,36 L21,0 L0,4.05633803 L1.2033385e-15,4.05633803 Z M14.0523871,22.488338 C13.1649677,23.6538592 12.0079355,24.2379718 10.5799355,24.2379718 C9.18851613,24.2379718 8.05587097,23.6727887 7.17929032,22.5437746 C6.30406452,21.4134085 5.86509677,19.9423099 5.86509677,18.1277746 C5.86509677,16.211831 6.30948387,14.6623099 7.1996129,13.4792113 C8.08974194,12.2961127 9.26845161,11.7038873 10.7357419,11.7038873 C12.1217419,11.7038873 13.2435484,12.2690704 14.0984516,13.4021408 C14.9547097,14.5352113 15.3828387,16.0279437 15.3828387,17.8816901 C15.3841935,19.7868169 14.9398065,21.3228169 14.0523871,22.488338 Z" id="path27"></path>
                </g>
            </g>
        </g>
    </g>
</svg>