<?xml version="1.0" encoding="UTF-8"?>
<svg width="60px" height="60px" viewBox="0 0 60 60" version="1.1" xmlns="http://www.w3.org/2000/svg" xmlns:xlink="http://www.w3.org/1999/xlink">
    <!-- Generator: Sketch 46.2 (44496) - http://www.bohemiancoding.com/sketch -->
    <title>Picassa</title>
    <desc>Created with Sketch.</desc>
    <defs></defs>
    <g id="Page-1" stroke="none" stroke-width="1" fill="none" fill-rule="evenodd">
        <g id="Social_icons" transform="translate(-522.000000, -1355.000000)">
            <g id="Picassa" transform="translate(522.000000, 1355.000000)">
                <circle id="Oval" fill="#FFFFFF" cx="30" cy="30" r="30"></circle>
                <g id="Group" transform="translate(12.000000, 12.000000)">
                    <path d="M18.0975059,10.9933084 L21.4325193,13.4373859 L24.7675328,15.8925871 L23.4747545,19.8355783 L22.1712001,23.7573651 L18.032502,23.7462414 L13.8938038,23.7246893 L12.6225776,19.7813505 L11.3735987,15.8380116 L14.7301642,13.4047102 L18.0975059,10.9933084 L18.0975059,10.9933084 Z M17.9998262,0 C8.05909446,0 0,8.05909446 0,17.9998262 C0,27.9409055 8.05909446,36 17.9998262,36 C27.9409055,36 36,27.9409055 36,17.9998262 C36,8.05909446 27.9409055,0 17.9998262,0 L17.9998262,0 Z" id="Fill-13" fill="#E9EAE7"></path>
                    <path d="M16.1547581,25 C15.2465711,25 14.7697817,25.5963333 15.110044,26.5313333 L17.4524697,32.9793333 C17.692096,32.9896667 17.9355929,33 18.1780341,33 C24.2024703,33 29.4249855,29.75 32,25 L16.1547581,25" id="Fill-14" fill="#09A15D"></path>
                    <path d="M24.0824337,21.539717 C23.8084502,22.3731193 24.2258858,23.0057551 25.2088475,22.9999605 L31.9862138,22.9641702 C32.0683758,22.7477242 32.1515316,22.5275288 32.2247485,22.3049473 C34.0429128,16.7768826 32.558697,10.9198881 28.86406,7 L24.0824337,21.539717" id="Fill-16" fill="#FACF54"></path>
                    <path d="M10.3440271,17.8492592 C10.0773228,16.9808579 9.35989833,16.7176525 8.55470206,17.3454593 L3,21.6701542 C3.06032194,21.9026229 3.12199944,22.1389779 3.19316577,22.37074 C4.96351313,28.1312294 9.64456368,32.0736582 15,33 L10.3440271,17.8492592" id="Fill-17" fill="#5777AD"></path>
                    <path d="M15.4860765,10.7846171 C16.1892924,10.2565707 16.1937194,9.49061327 15.3573523,8.92228923 L9.59370639,5 C9.40164162,5.1307316 9.20651199,5.26385254 9.01887424,5.40482421 C4.35244946,8.90863579 2.29796936,14.6092843 3.21266082,20 L15.4860765,10.7846171" id="Fill-18" fill="#8D458A"></path>
                    <path d="M23.2703704,13.7270776 C23.9737374,14.2479814 24.696633,14.0239515 24.9878788,13.0488032 L27,6.32618983 C26.8205387,6.1801581 26.6380471,6.03172115 26.4505051,5.89256151 C21.7851852,2.4369355 15.8124579,2.15277495 11,4.6380631 L23.2703704,13.7270776" id="Fill-19" fill="#D0463F"></path>
                </g>
            </g>
        </g>
    </g>
</svg>