<?xml version="1.0" encoding="UTF-8"?>
<svg width="60px" height="60px" viewBox="0 0 60 60" version="1.1" xmlns="http://www.w3.org/2000/svg" xmlns:xlink="http://www.w3.org/1999/xlink">
    <!-- Generator: Sketch 46.2 (44496) - http://www.bohemiancoding.com/sketch -->
    <title>Pixate</title>
    <desc>Created with Sketch.</desc>
    <defs></defs>
    <g id="Page-1" stroke="none" stroke-width="1" fill="none" fill-rule="evenodd">
        <g id="Social_icons" transform="translate(-522.000000, -1555.000000)">
            <g id="Pixate" transform="translate(522.000000, 1555.000000)">
                <circle id="Oval" fill="#FFFFFF" cx="30" cy="30" r="30"></circle>
                <g id="Group" transform="translate(16.000000, 15.000000)">
                    <path d="M16.6419753,7.75254536 L15,14 L16.728395,14 C22.6049382,14 24.5061728,10.8762727 26.5802469,5.93037109 L29,0.116767465 C20.7901234,-0.490623958 18.3703703,1.15800991 16.6419753,7.75254536" id="Shape" fill="#3EC4FC"></path>
                    <path d="M0,0.146158788 L2.41975308,5.94745479 C4.49382716,10.8828857 6.39506173,14 12.271605,14 L14,14 L12.3580247,7.76577145 C10.6296296,1.09861038 8.20987654,-0.546533273 0,0.146158788" id="Shape" fill="#FFBD00"></path>
                    <path d="M12.3580247,22.2474547 L14,16 L12.271605,16 C6.39506173,16 4.49382716,19.1237273 2.41975308,24.0696289 L0,29.8832325 C8.20987654,30.490624 10.6296296,28.8419901 12.3580247,22.2474547" id="Shape" fill="#F18B37"></path>
                    <path d="M29,29.8538412 L26.5802469,24.0525452 C24.5061728,19.1171143 22.6049382,16 16.728395,16 L15,16 L16.6419753,22.2342285 C18.3703703,28.9013896 20.7901234,30.5465333 29,29.8538412" id="Shape" fill="#0090DB"></path>
                </g>
            </g>
        </g>
    </g>
</svg>