<?xml version="1.0" encoding="UTF-8"?>
<svg width="60px" height="60px" viewBox="0 0 60 60" version="1.1" xmlns="http://www.w3.org/2000/svg" xmlns:xlink="http://www.w3.org/1999/xlink">
    <!-- Generator: Sketch 46.2 (44496) - http://www.bohemiancoding.com/sketch -->
    <title>Playstation</title>
    <desc>Created with Sketch.</desc>
    <defs></defs>
    <g id="Page-1" stroke="none" stroke-width="1" fill="none" fill-rule="evenodd">
        <g id="Social_icons" transform="translate(-322.000000, -854.000000)">
            <g id="Playstation" transform="translate(322.000000, 854.000000)">
                <path d="M0,30 C0,13.4314567 13.4314567,0 30,0 C46.5685433,0 60,13.4314567 60,30 C60,46.5685433 46.5685433,60 30,60 C13.4314567,60 0,46.5685433 0,30 Z" id="back" fill="#FFFFFF"></path>
                <path d="M26,44 L26,17.8757521 L31.5757138,16 L31.5757138,37.9123903 C31.5757138,38.9382593 32.0098301,39.6239604 32.7019877,39.3857356 C33.6137333,39.1185375 33.7918323,38.1720768 33.7918323,37.1462078 L33.7918323,28.3952018 C37.2647633,26.6181735 40,28.3962749 40,33.0953129 C40,37.9123903 38.4001446,40.0499751 33.6784966,41.7679838 C31.8226238,42.4311501 28.3689194,43.5353543 26,44" id="path3107" fill="#000000" transform="translate(33.000000, 30.000000) scale(1, -1) translate(-33.000000, -30.000000) "></path>
                <path d="M33,37.3148796 L42.0910364,40.5985653 C43.119281,40.9718531 43.2793669,41.5000711 42.4430203,41.7776975 C41.6046213,42.0563636 40.0868831,41.9752593 39.05556,41.6009316 L33,39.440229 L33,42.8819641 L33.3489053,43.0005012 C33.3489053,43.0005012 35.0995892,43.6275001 37.5614242,43.9030469 C40.022233,44.1785936 43.0361594,43.8676937 45.4005061,42.9589093 C48.0675796,42.1031546 48.3682539,40.8460374 47.6919933,39.9798848 C47.012654,39.1137321 45.3522751,38.4950516 45.3522751,38.4950516 L33,34 L33,37.3148796" id="path3111" fill="#000000" transform="translate(40.500000, 39.000000) scale(1, -1) translate(-40.500000, -39.000000) "></path>
                <path d="M14.8537381,31.9795794 C11.8561321,32.7844078 11.3563439,34.4605085 12.719811,35.4260883 C13.9855667,36.3187941 16.1296019,36.9928781 16.1296019,36.9928781 L25,40 L25,36.5727813 L18.6184348,34.3919213 C17.4885766,34.0039747 17.3167393,33.4606351 18.2320817,33.1734261 C19.1496704,32.886217 20.809641,32.9676643 21.9383762,33.3556109 L25,34.4133548 L25,31.3462191 C24.8045772,31.3119255 24.5878151,31.2797752 24.389023,31.2476249 C21.3251529,30.7696576 18.0647369,30.9679176 14.8537381,31.9795794" id="path3115" fill="#000000" transform="translate(18.500000, 35.500000) scale(1, -1) translate(-18.500000, -35.500000) "></path>
            </g>
        </g>
    </g>
</svg>