<?xml version="1.0" encoding="UTF-8"?>
<svg width="60px" height="60px" viewBox="0 0 60 60" version="1.1" xmlns="http://www.w3.org/2000/svg" xmlns:xlink="http://www.w3.org/1999/xlink">
    <!-- Generator: Sketch 46.2 (44496) - http://www.bohemiancoding.com/sketch -->
    <title>Pocket</title>
    <desc>Created with Sketch.</desc>
    <defs></defs>
    <g id="Page-1" stroke="none" stroke-width="1" fill="none" fill-rule="evenodd">
        <g id="Social_icons" transform="translate(-722.000000, -1555.000000)">
            <g id="Pocket" transform="translate(722.000000, 1555.000000)">
                <path d="M0,30 C0,13.4314567 13.4314567,0 30,0 C46.5685433,0 60,13.4314567 60,30 C60,46.5685433 46.5685433,60 30,60 C13.4314567,60 0,46.5685433 0,30 Z" id="back" fill="#E84352"></path>
                <path d="M43.2754482,15 L16.7246888,15 C14.1152408,15 12,17.1323457 12,19.7610378 L12,32.9506779 C12,33.195429 12.018389,33.4359051 12.054453,33.6709632 C12.017533,34.0221973 12,34.3774224 12,34.7360676 C12,42.2964235 20.0584131,48.4276129 29.999858,48.4276129 C39.9411569,48.4276129 48,42.2964235 48,34.7360676 C48,34.3772794 47.98075,34.0221973 47.94541,33.6709632 C47.98075,33.4360481 48,33.195429 48,32.9506779 L48,19.7611788 C48,17.1316327 45.8824792,15 43.2754482,15 L43.2754482,15 Z M41.0381973,28.2596311 L31.7411997,37.5556277 C31.2689445,38.0278829 30.6484413,38.2605179 30.029222,38.2552439 C29.3907588,38.277195 28.7457385,38.0442749 28.2570893,37.5556277 L18.9622337,28.2596311 C18.0282723,27.3260977 18.0305523,25.8118311 18.9622337,24.8800077 C19.8950541,23.9461874 21.4066127,23.9447634 22.341857,24.8800077 L30.000001,32.5385777 L37.658566,24.8800077 C38.5895363,23.9461874 40.1066569,23.9486114 41.0381973,24.8800077 C41.9722977,25.8132561 41.9722977,27.3246717 41.0381973,28.2596311 Z" id="path9-6" fill="#FFFFFF" fill-rule="nonzero"></path>
            </g>
        </g>
    </g>
</svg>