<?xml version="1.0" encoding="UTF-8"?>
<svg width="60px" height="60px" viewBox="0 0 60 60" version="1.1" xmlns="http://www.w3.org/2000/svg" xmlns:xlink="http://www.w3.org/1999/xlink">
    <!-- Generator: Sketch 46.2 (44496) - http://www.bohemiancoding.com/sketch -->
    <title>Quora</title>
    <desc>Created with Sketch.</desc>
    <defs></defs>
    <g id="Page-1" stroke="none" stroke-width="1" fill="none" fill-rule="evenodd">
        <g id="Social_icons" transform="translate(-322.000000, -1655.000000)">
            <g id="Quora" transform="translate(322.000000, 1655.000000)">
                <path d="M0,30 C0,13.4314567 13.4314567,0 30,0 C46.5685433,0 60,13.4314567 60,30 C60,46.5685433 46.5685433,60 30,60 C13.4314567,60 0,46.5685433 0,30 Z" id="back" fill="#B92B27"></path>
                <path d="M31.0022386,40.8058237 C29.7231086,38.2891238 28.2223243,35.7424082 25.2923314,35.7424082 C24.7335779,35.7424082 24.1725154,35.8347642 23.6599399,36.0656541 L22.6671133,34.080001 C23.8769764,33.0363786 25.8372316,32.2097928 28.3562404,32.2097928 C32.274442,32.2097928 34.285493,34.10309 35.8832511,36.5089627 C36.8298997,34.4540426 37.2778261,31.6741282 37.2778261,28.2315599 C37.2778261,19.63322 34.5902677,15.2186052 28.3100624,15.2186052 C22.1222131,15.2186052 19.4438903,19.63322 19.4438903,28.2315599 C19.4438903,36.7837217 22.1222131,41.1521586 28.3100624,41.1521586 C29.2936534,41.1521586 30.1848884,41.0459492 31.0022386,40.8058237 L31.0022386,40.8058237 Z M32.5376565,43.8073924 C31.1800239,44.1698895 29.7392709,44.3707637 28.3123713,44.3707637 C20.0696019,44.3707637 12,37.7950194 12,28.2315599 C12,18.5803621 20.067293,12 28.3100624,12 C36.6913657,12 44.6801562,18.5295663 44.6801562,28.2315599 C44.6801562,33.6274568 42.1634563,38.0120559 38.5038514,40.8473839 C39.6813899,42.6183094 40.9004886,43.7958479 42.5952204,43.7958479 C44.4423396,43.7958479 45.1904229,42.3689483 45.3151034,41.2468234 L47.725594,41.2468234 C47.8641279,42.7406811 47.1183535,48.9446926 40.3832952,48.9446926 C36.3080885,48.9446926 34.1492679,46.5803801 32.5330387,43.8097013 L32.5376565,43.8073924 Z" id="Shape" fill="#FFFFFF"></path>
            </g>
        </g>
    </g>
</svg>