<?xml version="1.0" encoding="UTF-8"?>
<svg width="60px" height="60px" viewBox="0 0 60 60" version="1.1" xmlns="http://www.w3.org/2000/svg" xmlns:xlink="http://www.w3.org/1999/xlink">
    <!-- Generator: Sketch 46.2 (44496) - http://www.bohemiancoding.com/sketch -->
    <title>Reddit</title>
    <desc>Created with Sketch.</desc>
    <defs></defs>
    <g id="Page-1" stroke="none" stroke-width="1" fill="none" fill-rule="evenodd">
        <g id="Social_icons" transform="translate(-722.000000, -1455.000000)">
            <g id="Reddit" transform="translate(722.000000, 1455.000000)">
                <path d="M30,60 C46.5685425,60 60,46.5685425 60,30 C60,13.4314575 46.5685425,0 30,0 C13.4314575,0 0,13.4314575 0,30 C0,46.5685425 13.4314575,60 30,60 Z" id="Oval" fill="#FF5700"></path>
                <g id="Group" transform="translate(9.000000, 12.000000)" fill="#FFFFFF">
                    <path d="M43,17.6093514 C43,14.8655676 40.7581364,12.6330811 38.0017386,12.6330811 C36.7410568,12.6330811 35.5908068,13.1044865 34.7107727,13.8741081 C31.5791023,11.8712432 27.4388864,10.5679459 22.8540114,10.3397838 L25.2649432,2.75302703 L31.8429659,4.29518919 C31.91675,6.5052973 33.7408295,8.28243243 35.9792727,8.28243243 C38.2636477,8.28243243 40.1224205,6.43232432 40.1224205,4.15751351 C40.1224205,1.8827027 38.2631591,0.0325945946 35.9792727,0.0325945946 C34.3198636,0.0325945946 32.889625,1.01091892 32.2280114,2.41589189 L24.8364091,0.684486486 C24.3467955,0.570162162 23.8493636,0.850864865 23.6993523,1.32859459 L20.8452273,10.3101081 C15.96375,10.4054595 11.5352386,11.718 8.21642045,13.8084324 C7.34615909,13.0767568 6.22278409,12.6330811 4.99826136,12.6330811 C2.24186364,12.6335676 0,14.8655676 0,17.6093514 C0,19.3563243 0.910818182,20.8921622 2.28193182,21.7795135 C2.21205682,22.2251351 2.17443182,22.6765946 2.17443182,23.1334054 C2.17443182,30.2093514 10.80375,35.9664324 21.4120455,35.9664324 C32.0193636,35.9664324 40.6496591,30.2093514 40.6496591,23.1334054 C40.6496591,22.7096757 40.6174091,22.2908108 40.5573068,21.8763243 C42.0158864,21.0084324 43,19.4234595 43,17.6093514 L43,17.6093514 Z M35.9792727,1.95032432 C37.2023295,1.95032432 38.1971932,2.9412973 38.1971932,4.15897297 C38.1971932,5.37664865 37.2023295,6.36713514 35.9792727,6.36713514 C34.7557273,6.36713514 33.7608636,5.37664865 33.7608636,4.15897297 C33.7608636,2.9412973 34.7557273,1.95032432 35.9792727,1.95032432 L35.9792727,1.95032432 Z M1.92522727,17.6093514 C1.92522727,15.9227027 3.30367045,14.5498378 4.99777273,14.5498378 C5.56996591,14.5498378 6.10453409,14.7098919 6.56434091,14.9828108 C4.84971591,16.3697838 3.56655682,18.0019459 2.84288636,19.7858919 C2.27655682,19.2308108 1.92522727,18.4607027 1.92522727,17.6093514 L1.92522727,17.6093514 Z M38.7244318,23.1343784 C38.7244318,29.1527027 30.9570682,34.0501622 21.4120455,34.0501622 C11.8655568,34.0501622 4.09965909,29.1531892 4.09965909,23.1343784 C4.09965909,22.9222703 4.11138636,22.7130811 4.12995455,22.5043784 C4.18810227,21.8646486 4.33664773,21.239027 4.56288636,20.6328649 C5.14973864,19.0615135 6.27555682,17.6195676 7.81329545,16.3902162 C8.30535227,15.9966486 8.83845455,15.624973 9.40918182,15.2781081 C12.5242386,13.3851892 16.7548523,12.2176216 21.4120455,12.2176216 C26.1366705,12.2176216 30.4244545,13.4182703 33.5497727,15.3598378 C34.1219659,15.7144865 34.6536023,16.0949189 35.1432159,16.4972432 C36.619875,17.7081081 37.6992727,19.1198919 38.2685341,20.6547568 C38.4928182,21.2628649 38.6413636,21.888973 38.6970682,22.5301622 C38.7141705,22.7310811 38.7244318,22.9315135 38.7244318,23.1343784 L38.7244318,23.1343784 Z M40.0300682,19.9002162 C39.3269205,18.0977838 38.0466932,16.4490811 36.3330455,15.0445946 C36.8138636,14.7327568 37.3865455,14.5498378 38.0022273,14.5498378 C39.6968182,14.5498378 41.0752614,15.9222162 41.0752614,17.6093514 C41.0742841,18.5215135 40.6687159,19.3397838 40.0300682,19.9002162 L40.0300682,19.9002162 Z" id="Shape"></path>
                    <path d="M18.0213977,20.826973 C18.0213977,19.2108649 16.7050114,17.855027 15.0812727,17.855027 C13.4580227,17.855027 12.0966818,19.2108649 12.0966818,20.826973 C12.0966818,22.4425946 13.4585114,23.7546486 15.0812727,23.7546486 C16.7050114,23.7527027 18.0213977,22.4425946 18.0213977,20.826973 L18.0213977,20.826973 Z" id="Shape"></path>
                    <path d="M27.9631932,17.8540541 C26.3399432,17.8540541 24.9742045,19.2094054 24.9742045,20.8255135 C24.9742045,22.4421081 26.3399432,23.7531892 27.9631932,23.7531892 C29.5869318,23.7531892 30.9042955,22.4430811 30.9042955,20.8255135 C30.9033182,19.2084324 29.5869318,17.8540541 27.9631932,17.8540541 L27.9631932,17.8540541 Z" id="Shape"></path>
                    <path d="M27.1325114,27.9223784 C26.0433409,29.0052973 24.2094886,29.5311892 21.5224773,29.5311892 C21.5141705,29.5311892 21.5068409,29.5336216 21.4990227,29.5336216 C21.4907159,29.5336216 21.483875,29.5311892 21.4760568,29.5311892 C18.7885568,29.5311892 16.9542159,29.0052973 15.8665114,27.9223784 C15.49075,27.5477838 14.8809318,27.5477838 14.5051705,27.9223784 C14.1289205,28.2974595 14.1289205,28.9041081 14.5051705,29.2772432 C15.9715682,30.7376757 18.2520341,31.4484324 21.4760568,31.4484324 C21.4843636,31.4484324 21.4912045,31.4455135 21.4990227,31.4455135 C21.5068409,31.4455135 21.5141705,31.4484324 21.5224773,31.4484324 C24.7460114,31.4484324 27.0269659,30.7376757 28.4948295,29.2782162 C28.8715682,28.9031351 28.8715682,28.296973 28.4958068,27.9233514 C28.1190682,27.5487568 27.50925,27.5487568 27.1325114,27.9223784 L27.1325114,27.9223784 Z" id="Shape"></path>
                </g>
            </g>
        </g>
    </g>
</svg>