<?xml version="1.0" encoding="UTF-8"?>
<svg width="60px" height="60px" viewBox="0 0 60 60" version="1.1" xmlns="http://www.w3.org/2000/svg" xmlns:xlink="http://www.w3.org/1999/xlink">
    <!-- Generator: Sketch 46.2 (44496) - http://www.bohemiancoding.com/sketch -->
    <title>Renren</title>
    <desc>Created with Sketch.</desc>
    <defs></defs>
    <g id="Page-1" stroke="none" stroke-width="1" fill="none" fill-rule="evenodd">
        <g id="Social_icons" transform="translate(-422.000000, -552.000000)">
            <g id="Renren" transform="translate(422.000000, 552.000000)">
                <path d="M0,30 C0,13.4314567 13.4314567,0 30,0 C46.5685433,0 60,13.4314567 60,30 C60,46.5685433 46.5685433,60 30,60 C13.4314567,60 0,46.5685433 0,30 Z" id="back" fill="#FFFFFF"></path>
                <g id="Page-1" transform="translate(9.000000, 18.000000)">
                    <path d="M13.7822,0 L13.7802,8.603 C13.7802,8.603 14.0122,12.198 16.1052,15.304 C18.0882,18.246 19.9902,19.361 20.9832,19.771 C22.8442,17.66 23.9742,14.889 23.9742,11.854 C23.9742,5.843 19.5512,0.866 13.7822,0" id="Fill-1" fill="#0661A7"></path>
                    <path d="M14.058,19.3999 C12.263,17.1919 11.803,15.0509 11.803,15.0509 C11.803,15.0509 11.389,17.2829 9.962,19.1699 C9.066,20.3559 7.242,21.7769 6.356,22.4359 C8.035,23.3319 9.951,23.8399 11.987,23.8399 C13.995,23.8399 15.887,23.3439 17.55,22.4709 C16.516,21.6639 14.724,20.2199 14.058,19.3999" id="Fill-2" fill="#0661A7"></path>
                    <path d="M9.85,8.793 L9.847,0.06 C4.247,1.07 0,5.964 0,11.854 C0,14.857 1.108,17.602 2.934,19.705 C3.908,19.106 5.978,17.689 7.316,15.731 C9.388,12.705 9.85,8.793 9.85,8.793" id="Fill-3" fill="#0661A7"></path>
                    <path d="M31.8305,0.0664 L31.8295,8.6694 C31.8295,8.6694 32.0605,12.2644 34.1545,15.3704 C36.1365,18.3124 38.0385,19.4274 39.0315,19.8374 C40.8925,17.7254 42.0225,14.9554 42.0225,11.9194 C42.0225,5.9084 37.5995,0.9324 31.8305,0.0664" id="Fill-4" fill="#0661A7"></path>
                    <path d="M32.1064,19.4663 C30.3124,17.2573 29.8524,15.1173 29.8524,15.1173 C29.8524,15.1173 29.4384,17.3493 28.0104,19.2363 C27.1144,20.4213 25.2904,21.8433 24.4044,22.5023 C26.0844,23.3973 28.0004,23.9063 30.0354,23.9063 C32.0434,23.9063 33.9354,23.4103 35.5994,22.5363 C34.5644,21.7293 32.7734,20.2853 32.1064,19.4663" id="Fill-5" fill="#0661A7"></path>
                    <path d="M27.8989,8.8594 L27.8949,0.1264 C22.2959,1.1364 18.0489,6.0294 18.0489,11.9194 C18.0489,14.9234 19.1559,17.6674 20.9829,19.7714 C21.9569,19.1724 24.0259,17.7544 25.3649,15.7974 C27.4359,12.7714 27.8989,8.8594 27.8989,8.8594" id="Fill-6" fill="#0661A7"></path>
                    <path d="M18.0961,11.8794 C18.0961,14.8944 19.1541,17.6574 20.9831,19.7714 C22.8111,17.6574 23.9701,14.8944 23.9701,11.8794 C23.9701,8.8654 22.8611,6.1114 21.0331,3.9974 C19.2041,6.1114 18.0961,8.8654 18.0961,11.8794" id="Fill-7" fill="#CE392C"></path>
                </g>
            </g>
        </g>
    </g>
</svg>