<?xml version="1.0" encoding="utf-8"?>
<!-- Designed by Vexels.com - 2016 All Rights Reserved - https://vexels.com/terms-and-conditions/  -->

<svg version="1.1" id="Capa_1" xmlns="http://www.w3.org/2000/svg" xmlns:xlink="http://www.w3.org/1999/xlink" x="0px" y="0px"
	 width="1200px" height="1200px" viewBox="0 0 1200 1200" enable-background="new 0 0 1200 1200" xml:space="preserve">
<g id="VEXELS">
</g>
<g>
	<g id="BACKGROUND">
		<g>
			<circle fill="#2AACE2" cx="600.001" cy="600" r="550"/>
			<g>
				<g>
					<path fill="#FFFFFF" d="M884.715,651.566c8.832-114.718-16.38-204.258-114.77-284.975c-98.34-80.743-230.767-53-230.767-53
						s-105.95-54.222-196.747,28.993c-90.793,83.271-26.489,190.468-26.489,190.468s-22.695,83.223,17.659,181.558
						c94.58,198.021,281.23,181.646,322.87,171.567c47.907,22.694,133.637,32.778,205.543-29.049
						C933.902,795.33,899.896,681.872,884.715,651.566z M774.985,693.603c-8.059,90.184-112.071,112.135-160.65,112.135
						c-48.521,0-131.791-15.047-171.107-84.373c-16.138-26.593,2.317-42.774,10.425-48.567c8.11-5.789,32.354-15.047,50.898,6.938
						c18.481,21.979,53.129,63.59,119.037,56.651c65.886-6.934,75.144-82.072,11.577-93.62
						c-63.586-11.548-186.153-32.377-198.817-121.386c-12.538-87.462,79.751-132.937,156.034-132.937
						c74.016,0,131.503,28.46,157.237,64.736c19.607,27.761,1.121,52.035-6.968,56.652c-8.107,4.614-34.725,16.162-58.966-12.722
						c0,0-27.764-42.783-94.771-38.138c-67.058,4.641-78.634,63.56-34.704,76.279c43.955,12.722,114.906,27.553,142.221,36.97
						C726.464,582.643,783.074,603.452,774.985,693.603z"/>
					<path fill="#2AACE2" d="M774.985,693.603c-8.059,90.184-112.071,112.135-160.65,112.135
						c-48.521,0-131.791-15.047-171.107-84.373c-16.138-26.593,2.317-42.774,10.425-48.567c8.11-5.789,32.354-15.047,50.898,6.938
						c18.481,21.979,53.129,63.59,119.037,56.651c65.886-6.934,75.144-82.072,11.577-93.62
						c-63.586-11.548-186.153-32.377-198.817-121.386c-12.538-87.462,79.751-132.937,156.034-132.937
						c74.016,0,131.503,28.46,157.237,64.736c19.607,27.761,1.121,52.035-6.968,56.652c-8.107,4.614-34.725,16.162-58.966-12.722
						c0,0-27.764-42.783-94.771-38.138c-67.058,4.641-78.634,63.56-34.704,76.279c43.955,12.722,114.906,27.553,142.221,36.97
						C726.464,582.643,783.074,603.452,774.985,693.603z"/>
				</g>
			</g>
			<path opacity="0.2" enable-background="new    " d="M1134.845,728.7c-48.347,201.783-207.92,360.305-410.27,407.144
				L394.429,805.728c0,0,49.958,47.573,98.998,65.751c53.412,19.8,106.584,19.965,106.584,19.965
				c25.683,0.28,45.831-2.687,56.471-5.286c47.902,22.709,133.617,32.788,205.523-29.005c71.906-61.833,37.9-175.301,22.71-205.606
				c7.678-100.1-10.524-181.063-80.682-253.662L1134.845,728.7z"/>
			<g opacity="0.1">
				<g>
					<path opacity="0.1" enable-background="new    " d="M862.005,857.158c-71.906,61.788-157.621,51.714-205.523,29.01
						c-10.64,2.6-30.793,5.566-56.471,5.276v-86.17c1.633,0.125,3.254,0.212,4.844,0.241c1.42,0.087,2.797,0.126,4.179,0.126
						c1.836,0.087,3.585,0.087,5.325,0.087c48.55,0,152.586-21.941,160.636-112.125c8.079-90.151-48.516-110.95-78.573-121.39
						c-8.533-2.926-21.327-6.419-36.189-10.197c-1.508-0.367-3.011-0.731-4.552-1.138c-3.296-0.816-6.668-1.67-10.118-2.479
						c-2.972-0.728-5.972-1.462-9.016-2.237c-8.253-1.988-16.737-4.062-25.193-6.137c-3.372-0.809-6.783-1.626-10.158-2.479
						c-0.401-0.118-0.769-0.203-1.179-0.28v-88.644c0.935,0,1.831,0,2.727,0.039c0.938,0.041,1.827,0.084,2.721,0.118
						c1.995,0.085,3.947,0.208,5.89,0.411c1.914,0.164,3.778,0.405,5.605,0.647c1.222,0.164,2.396,0.367,3.575,0.57
						c1.59,0.241,3.131,0.569,4.677,0.891c3.006,0.652,5.924,1.38,8.692,2.235c1.426,0.405,2.769,0.857,4.103,1.302
						c2.638,0.896,5.16,1.87,7.557,2.924c1.218,0.49,2.392,1.015,3.537,1.584c1.131,0.524,2.232,1.054,3.329,1.662
						c5.407,2.806,10.074,5.854,14.017,8.816c0.813,0.569,1.547,1.179,2.271,1.787c10.282,8.207,14.998,15.477,14.998,15.477
						c24.207,28.884,50.858,17.346,58.937,12.715c8.089-4.591,26.575-28.885,6.987-56.631c-6.62-9.343-15.395-18.198-25.995-26.125
						c-0.938-0.728-1.919-1.459-2.934-2.15c-1.295-0.976-2.633-1.867-4.024-2.803c-1.015-0.647-2.024-1.341-3.083-1.988
						c-1.134-0.727-2.319-1.459-3.497-2.152c-0.078-0.084-0.203-0.123-0.318-0.203c-1.344-0.812-2.764-1.628-4.185-2.398
						c-1.305-0.728-2.644-1.459-3.991-2.152c-0.319-0.208-0.638-0.367-0.962-0.491c-1.179-0.651-2.323-1.261-3.541-1.828
						c-2.764-1.344-5.566-2.644-8.485-3.904c-1.507-0.649-3.053-1.297-4.638-1.911c-1.711-0.727-3.45-1.379-5.248-2.029
						c-1.459-0.567-2.962-1.097-4.464-1.582c-2.116-0.732-4.224-1.464-6.417-2.111c-1.585-0.491-3.17-0.977-4.793-1.426
						c-2.565-0.728-5.16-1.421-7.799-2.068c-1.874-0.49-3.778-0.938-5.73-1.341c-3.816-0.896-7.76-1.669-11.741-2.316
						c-1.826-0.326-3.739-0.647-5.644-0.894c-1.063-0.165-2.116-0.329-3.213-0.447c-1.097-0.162-2.188-0.287-3.329-0.449
						c-4.146-0.524-8.33-0.931-12.592-1.218c-2.116-0.164-4.31-0.321-6.465-0.406c-2.154-0.118-4.346-0.202-6.544-0.241v-79.461
						c47.329,0.813,114.113,11.7,169.939,57.522c8.896,7.271,17.187,14.664,24.903,22.096c0.487,0.49,0.971,0.935,1.464,1.425
						l6.822,6.823c0.328,0.326,0.608,0.608,0.898,0.935c70.157,72.6,88.354,153.563,80.682,253.663
						C899.906,681.862,933.912,795.325,862.005,857.158z"/>
				</g>
			</g>
			<path opacity="0.1" enable-background="new    " d="M742.651,509.812c-8.088,4.631-34.739,16.169-58.946-12.715
				c0,0-4.711-7.274-14.993-15.477c-0.72-0.608-1.459-1.218-2.271-1.788c-3.942-2.962-8.61-6.011-14.017-8.815
				c-1.102-0.608-2.193-1.138-3.329-1.662c-1.136-0.57-2.324-1.099-3.542-1.585c-2.392-1.053-4.918-2.031-7.552-2.923
				c-1.339-0.444-2.677-0.896-4.103-1.302c-2.764-0.851-5.682-1.583-8.692-2.235c-1.551-0.321-3.087-0.649-4.677-0.892
				c-1.174-0.207-2.354-0.41-3.575-0.569c-1.827-0.242-3.691-0.488-5.61-0.647c-1.942-0.162-3.89-0.326-5.885-0.411
				c-0.894-0.039-1.778-0.077-2.721-0.118c-0.896-0.039-1.787-0.039-2.727-0.039v-70.084c2.198,0.038,4.394,0.123,6.539,0.241
				c2.16,0.123,4.311,0.244,6.47,0.406c4.257,0.287,8.441,0.693,12.592,1.218c1.136,0.161,2.228,0.287,3.329,0.449
				c1.102,0.118,2.155,0.282,3.208,0.446c1.909,0.242,3.817,0.568,5.648,0.895c3.986,0.693,7.929,1.459,11.741,2.316
				c1.957,0.406,3.86,0.851,5.726,1.341c2.639,0.647,5.243,1.341,7.799,2.068c1.623,0.449,3.208,0.935,4.798,1.425
				c2.188,0.647,4.305,1.38,6.417,2.112c1.512,0.49,3.01,1.015,4.469,1.584c1.788,0.647,3.527,1.3,5.243,2.027
				c1.58,0.613,3.131,1.264,4.633,1.911c2.929,1.261,5.73,2.563,8.495,3.904c1.217,0.567,2.357,1.176,3.536,1.828
				c0.319,0.119,0.643,0.283,0.967,0.491c1.338,0.688,2.687,1.42,3.986,2.152c1.42,0.771,2.797,1.587,4.184,2.398
				c0.121,0.08,0.246,0.121,0.324,0.203c1.178,0.693,2.357,1.426,3.487,2.152c1.063,0.65,2.078,1.341,3.093,1.988
				c1.382,0.938,2.725,1.873,4.02,2.803c1.015,0.691,1.991,1.426,2.929,2.15c10.605,7.927,19.375,16.782,26.004,26.125
				C769.216,480.927,750.735,505.221,742.651,509.812z"/>
			<path opacity="0.1" enable-background="new    " d="M774.985,693.603c-8.05,90.184-112.086,112.125-160.626,112.125
				c-1.749,0-3.498,0-5.325-0.087c-1.382,0-2.764-0.039-4.184-0.126c-1.585-0.038-3.206-0.116-4.844-0.241v-68.447
				c1.268,0.077,2.611,0.159,3.906,0.203c1.662,0.087,3.295,0.121,4.996,0.121c4.716,0,9.586-0.247,14.664-0.773
				c65.891-6.904,75.158-82.063,11.582-93.601c-1.991-0.362-4.021-0.729-6.137-1.135c-1.053-0.16-2.111-0.362-3.17-0.565
				c-2.154-0.406-4.349-0.816-6.58-1.218c-1.141-0.208-2.276-0.411-3.411-0.647c-5.074-0.933-10.403-1.957-15.846-3.126v-88.809
				c0.41,0.08,0.777,0.162,1.179,0.282c3.37,0.851,6.781,1.667,10.153,2.479c8.456,2.072,16.945,4.141,25.198,6.134
				c3.039,0.771,6.049,1.505,9.011,2.237c3.46,0.812,6.832,1.662,10.118,2.479c1.546,0.405,3.044,0.771,4.552,1.138
				c14.872,3.778,27.666,7.271,36.199,10.197C726.474,582.653,783.074,603.452,774.985,693.603z"/>
			<line fill="none" x1="600.011" y1="736.827" x2="600.011" y2="636.076"/>
			<g opacity="0.1">
				<g>
					<path opacity="0.1" enable-background="new    " d="M862.005,857.158c-71.906,61.788-157.621,51.714-205.523,29.01
						c-10.64,2.6-30.793,5.566-56.471,5.276v-86.17c1.633,0.125,3.254,0.212,4.844,0.241c1.42,0.087,2.797,0.126,4.179,0.126
						c1.836,0.087,3.585,0.087,5.325,0.087c48.55,0,152.586-21.941,160.636-112.125c8.079-90.151-48.516-110.95-78.573-121.39
						c-8.533-2.926-21.327-6.419-36.189-10.197c-1.508-0.367-3.011-0.731-4.552-1.138c-3.296-0.816-6.668-1.67-10.118-2.479
						c-2.972-0.728-5.972-1.462-9.016-2.237c-8.253-1.988-16.737-4.062-25.193-6.137c-3.372-0.809-6.783-1.626-10.158-2.479
						c-0.401-0.118-0.769-0.203-1.179-0.28v-88.644c0.935,0,1.831,0,2.727,0.039c0.938,0.041,1.827,0.084,2.721,0.118
						c1.995,0.085,3.947,0.208,5.89,0.411c1.914,0.164,3.778,0.405,5.605,0.647c1.222,0.164,2.396,0.367,3.575,0.57
						c1.59,0.241,3.131,0.569,4.677,0.891c3.006,0.652,5.924,1.38,8.692,2.235c1.426,0.405,2.769,0.857,4.103,1.302
						c2.638,0.896,5.16,1.87,7.557,2.924c1.218,0.49,2.392,1.015,3.537,1.584c1.131,0.524,2.232,1.054,3.329,1.662
						c5.407,2.806,10.074,5.854,14.017,8.816c0.813,0.569,1.547,1.179,2.271,1.787c10.282,8.207,14.998,15.477,14.998,15.477
						c24.207,28.884,50.858,17.346,58.937,12.715c8.089-4.591,26.575-28.885,6.987-56.631c-6.62-9.343-15.395-18.198-25.995-26.125
						c-0.938-0.728-1.919-1.459-2.934-2.15c-1.295-0.976-2.633-1.867-4.024-2.803c-1.015-0.647-2.024-1.341-3.083-1.988
						c-1.134-0.727-2.319-1.459-3.497-2.152c-0.078-0.084-0.203-0.123-0.318-0.203c-1.344-0.812-2.764-1.628-4.185-2.398
						c-1.305-0.728-2.644-1.459-3.991-2.152c-0.319-0.208-0.638-0.367-0.962-0.491c-1.179-0.651-2.323-1.261-3.541-1.828
						c-2.764-1.344-5.566-2.644-8.485-3.904c-1.507-0.649-3.053-1.297-4.638-1.911c-1.711-0.727-3.45-1.379-5.248-2.029
						c-1.459-0.567-2.962-1.097-4.464-1.582c-2.116-0.732-4.224-1.464-6.417-2.111c-1.585-0.491-3.17-0.977-4.793-1.426
						c-2.565-0.728-5.16-1.421-7.799-2.068c-1.874-0.49-3.778-0.938-5.73-1.341c-3.816-0.896-7.76-1.669-11.741-2.316
						c-1.826-0.326-3.739-0.647-5.644-0.894c-1.063-0.165-2.116-0.329-3.213-0.447c-1.097-0.162-2.188-0.287-3.329-0.449
						c-4.146-0.524-8.33-0.931-12.592-1.218c-2.116-0.164-4.31-0.321-6.465-0.406c-2.154-0.118-4.346-0.202-6.544-0.241v-79.461
						c47.329,0.813,114.113,11.7,169.939,57.522c8.896,7.271,17.187,14.664,24.903,22.096c0.487,0.49,0.971,0.935,1.464,1.425
						l6.822,6.823c0.328,0.326,0.608,0.608,0.898,0.935c70.157,72.6,88.354,153.563,80.682,253.663
						C899.906,681.862,933.912,795.325,862.005,857.158z"/>
				</g>
			</g>
		</g>
	</g>
</g>
</svg>
