<?xml version="1.0" encoding="UTF-8"?>
<svg width="60px" height="60px" viewBox="0 0 60 60" version="1.1" xmlns="http://www.w3.org/2000/svg" xmlns:xlink="http://www.w3.org/1999/xlink">
    <!-- Generator: Sketch 46.2 (44496) - http://www.bohemiancoding.com/sketch -->
    <title>Steam</title>
    <desc>Created with Sketch.</desc>
    <defs></defs>
    <g id="Page-1" stroke="none" stroke-width="1" fill="none" fill-rule="evenodd">
        <g id="Social_icons" transform="translate(-622.000000, -854.000000)">
            <g id="Steam" transform="translate(622.000000, 854.000000)">
                <path d="M29.9677766,60 C46.5538131,60 60,46.5682403 60,30 C60,13.4315021 46.5538131,0 29.9677766,0 C14.0517293,0 1.02857143,12.3679828 0,28.006867 C1.94348443,31.2669528 2.70186896,33.2832618 1.19641676,38.6291845 C4.90646617,50.9922747 16.3839313,60 29.9677766,60 Z" id="Shape" fill="#FFFFFF"></path>
                <path d="M28.3019987,22.4472661 C28.3019987,22.497888 28.3019987,22.5485099 28.3045635,22.5960325 L20.9929858,33.2917183 C19.8085862,33.2374805 18.6200829,33.4466833 17.4931336,33.9141611 C16.9963423,34.1181984 16.5308409,34.3687252 16.0940647,34.6579932 L0.0390117605,28.0022455 C0.039137433,28.0022455 -0.332491684,34.1569396 1.21571718,38.7439043 L12.5657437,43.4600064 C13.1356303,46.0246775 14.8827352,48.274253 17.4603048,49.3564254 C21.6775165,51.1307749 26.5400183,49.1084814 28.2943045,44.8598571 C28.7508292,43.7492744 28.9637032,42.584454 28.9329262,41.4222164 L39.3945248,33.8934991 C39.4791614,33.8960818 39.5663627,33.8986646 39.6509994,33.8986646 C45.9115441,33.8986646 51,28.7589914 51,22.4472661 C51,16.1350242 45.9115441,11 39.6509994,11 C33.3930193,11 28.3019987,16.1350242 28.3019987,22.4472661 L28.3019987,22.4472661 Z M26.5477125,44.1211905 C25.189936,47.4038662 21.4438682,48.9612646 18.1876668,47.5949897 C16.6854951,46.9647986 15.5513644,45.8103092 14.8970978,44.4337033 L18.5916142,45.9756052 C20.9929858,46.9828779 23.7480359,45.8361367 24.746235,43.4186824 C25.7475118,40.9986453 24.6115858,38.2196059 22.2114966,37.2123333 L18.3923335,35.6187763 C19.8660365,35.0557368 21.5413285,35.0350747 23.1065929,35.6910933 C24.6846811,36.3522774 25.9090908,37.5971631 26.5579715,39.1881373 C27.2068522,40.7791115 27.2042875,42.5353818 26.5477125,44.1211905 L26.5477125,44.1211905 Z M39.6509994,30.0761941 C35.4832873,30.0761941 32.0901284,26.6540499 32.0901284,22.4472661 C32.0901284,18.2438399 35.4832873,14.8206626 39.6509994,14.8206626 C43.8212762,14.8206626 47.214435,18.2438399 47.214435,22.4472661 C47.214435,26.6540499 43.8212762,30.0761941 39.6509994,30.0761941 L39.6509994,30.0761941 Z M33.9854756,22.4356437 C33.9854756,19.2709997 36.5297036,16.7042624 39.6638231,16.7042624 C42.8005073,16.7042624 45.3447353,19.2709997 45.3447353,22.4356437 C45.3447353,25.600546 42.8005073,28.1649588 39.6638231,28.1649588 C36.5297036,28.1649588 33.9854756,25.600546 33.9854756,22.4356437 L33.9854756,22.4356437 Z" id="Shape" fill="#000000"></path>
            </g>
        </g>
    </g>
</svg>