<?xml version="1.0" encoding="UTF-8"?>
<svg width="60px" height="60px" viewBox="0 0 60 60" version="1.1" xmlns="http://www.w3.org/2000/svg" xmlns:xlink="http://www.w3.org/1999/xlink">
    <!-- Generator: Sketch 46.2 (44496) - http://www.bohemiancoding.com/sketch -->
    <title>StumbleUpon</title>
    <desc>Created with Sketch.</desc>
    <defs></defs>
    <g id="Page-1" stroke="none" stroke-width="1" fill="none" fill-rule="evenodd">
        <g id="Social_icons" transform="translate(-522.000000, -1255.000000)">
            <g id="StumbleUpon" transform="translate(522.000000, 1255.000000)">
                <path d="M60,30 C60,46.5685425 46.5685425,60 30,60 C13.4314575,60 2.02906125e-15,46.5685425 0,30 C-2.02906125e-15,13.4314575 13.4314575,3.04359188e-15 30,0 C46.5685425,-3.04359188e-15 60,13.4314575 60,30 L60,30 Z" id="path2987" fill="#EB4823"></path>
                <path d="M29.8,16.6 C25.6026,16.6 22.2,20.0026 22.2,24.2 L22.2,35 C22.2,35.9942 21.3942,36.8 20.4,36.8 C19.40588,36.8 18.6,35.9942 18.6,35 L18.6,30.2 L12.8,30.2 L12.8,35.2 C12.8,39.3974 16.20264,42.8 20.4,42.8 C24.5974,42.8 28,39.3974 28,35.2 L28,24.2 C28,23.2058 28.8058,22.4 29.8,22.4 C30.7942,22.4 31.6,23.2058 31.6,24.2 L31.6,26.4 L34,27.5 L37.4,26.4 L37.4,24.2 C37.4,20.0026 33.9974,16.6 29.8,16.6 L29.8,16.6 Z M31.6,30.3 L31.6,35.2 C31.6,39.3974 35.0026,42.8 39.2,42.8 C43.3974,42.8 46.8,39.3974 46.8,35.2 L46.8,30.4 L41,30.4 L41,35.2 C41,36.1942 40.1942,37 39.2,37 C38.2058,37 37.4,36.1942 37.4,35.2 L37.4,30.3 L34,31.4 L31.6,30.3 L31.6,30.3 Z" id="1" fill="#FFFFFF"></path>
            </g>
        </g>
    </g>
</svg>