<?xml version="1.0" encoding="UTF-8"?>
<svg width="60px" height="60px" viewBox="0 0 60 60" version="1.1" xmlns="http://www.w3.org/2000/svg" xmlns:xlink="http://www.w3.org/1999/xlink">
    <!-- Generator: Sketch 46.2 (44496) - http://www.bohemiancoding.com/sketch -->
    <title>Taobao</title>
    <desc>Created with Sketch.</desc>
    <defs></defs>
    <g id="Page-1" stroke="none" stroke-width="1" fill="none" fill-rule="evenodd">
        <g id="Social_icons" transform="translate(-722.000000, -552.000000)">
            <g id="Taobao" transform="translate(722.000000, 552.000000)">
                <path d="M0,30 C0,13.4314567 13.4314567,0 30,0 C46.5685433,0 60,13.4314567 60,30 C60,46.5685433 46.5685433,60 30,60 C13.4314567,60 0,46.5685433 0,30 Z" id="back" fill="#DE572C"></path>
                <g id="Page-1" transform="translate(12.000000, 16.000000)" fill="#FFFFFF">
                    <path d="M6.3772,6.4395 C8.2052,6.4395 9.6852,5.1085 9.6852,3.4755 C9.6852,1.8425 8.2052,0.5095 6.3772,0.5095 C4.5522,0.5095 3.0722,1.8425 3.0722,3.4755 C3.0722,5.1085 4.5522,6.4395 6.3772,6.4395" id="Fill-1"></path>
                    <path d="M3.636,7.6368 L1.561,10.8368 L5.403,13.2328 C5.403,13.2328 7.961,14.5398 6.746,16.9948 C5.595,19.3208 0,24.4118 0,24.4118 L5.017,27.5408 C8.481,20.0168 8.264,21.0198 9.136,18.3168 C10.031,15.5528 10.221,13.4458 8.709,11.9278 C6.752,9.9688 6.535,9.7878 3.636,7.6368" id="Fill-2"></path>
                    <path d="M36.1604,6.796 C36.1604,6.796 35.0844,-1.675 16.5394,3.576 C17.3254,2.198 17.7154,1.295 17.7154,1.295 L13.0804,0 C13.0804,0 11.2134,6.089 7.8834,8.934 C7.8834,8.934 11.1044,10.79 11.0704,10.738 C11.9924,9.817 12.8154,8.876 13.5424,7.967 C14.2784,7.641 14.9944,7.341 15.6904,7.056 C14.8384,8.601 13.4514,10.906 12.0654,12.364 L14.0164,14.07 C14.0164,14.07 15.3424,12.793 16.7974,11.25 L18.4574,11.25 L18.4574,14.096 L11.9924,14.096 L11.9924,16.368 L18.4574,16.368 L18.4574,21.821 C18.3744,21.818 18.2894,21.818 18.2104,21.808 C17.4994,21.775 16.3824,21.657 15.9544,20.973 C15.4274,20.139 15.8104,18.608 15.8404,17.663 L11.3854,17.663 L11.2224,17.748 C11.2224,17.748 9.5974,25.059 15.9374,24.897 C21.8674,25.057 25.2694,23.246 26.9004,21.994 L27.5524,24.412 L31.2124,22.892 L28.7404,16.824 L25.7634,17.748 L26.3214,19.829 C25.5564,20.396 24.6744,20.821 23.7334,21.138 L23.7334,16.368 L30.0334,16.368 L30.0334,14.096 L23.7334,14.096 L23.7334,11.25 L30.0604,11.25 L30.0604,8.978 L18.8214,8.978 C19.6294,7.99 20.2644,7.092 20.4364,6.514 L18.4794,5.985 C26.8804,2.981 31.5614,3.493 31.5184,8.425 L31.5184,21.417 C31.5184,21.417 32.0174,25.888 26.9004,25.563 L24.1374,24.967 L23.4894,27.596 C23.4894,27.596 35.4294,31.004 36.4074,21.826 C37.3824,12.648 36.1604,6.796 36.1604,6.796" id="Fill-3"></path>
                </g>
            </g>
        </g>
    </g>
</svg>