<?xml version="1.0" encoding="UTF-8"?>
<svg width="60px" height="60px" viewBox="0 0 60 60" version="1.1" xmlns="http://www.w3.org/2000/svg" xmlns:xlink="http://www.w3.org/1999/xlink">
    <!-- Generator: Sketch 46.2 (44496) - http://www.bohemiancoding.com/sketch -->
    <title>Treehouse</title>
    <desc>Created with Sketch.</desc>
    <defs></defs>
    <g id="Page-1" stroke="none" stroke-width="1" fill="none" fill-rule="evenodd">
        <g id="Social_icons" transform="translate(-322.000000, -1855.000000)">
            <g id="Treehouse" transform="translate(322.000000, 1855.000000)">
                <path d="M0,30 C0,13.4314567 13.4314567,0 30,0 C46.5685433,0 60,13.4314567 60,30 C60,46.5685433 46.5685433,60 30,60 C13.4314567,60 0,46.5685433 0,30 Z" id="back" fill="#5FCF80"></path>
                <path d="M45.0140406,20.726209 C44.5772231,20.5078003 43.5943837,20.0709828 42.5023401,19.4157566 C41.301092,18.7605304 39.4446178,19.8525741 38.2433697,21.7090484 L36.1684868,25.2035881 C35.4040561,26.7324493 35.5132606,28.3705149 36.4960999,29.7901716 L36.6053042,29.8993759 C37.5881435,31.3190328 38.898596,32.5202808 39.2262091,32.9570983 C39.4446178,33.175507 39.6630265,33.6123245 39.7722309,33.9399376 C40.099844,35.2503901 39.4446178,36.451638 38.1341654,36.7792511 C36.9329173,37.1068642 35.6224649,36.3424337 35.1856475,35.1411856 C35.076443,34.8135725 35.076443,34.4859594 35.076443,34.1583463 C35.1856475,33.6123245 34.9672387,32.7386896 34.2028082,32.0834633 C33.4383775,31.2098284 31.9095164,32.8478939 31.4726989,34.3767551 L31.4726989,34.4859594 C31.0358814,36.1240249 30.7082683,37.4344773 30.8174727,37.5436818 C30.8174727,37.6528861 30.9266771,37.7620904 30.9266771,37.7620904 C31.5819033,39.0725429 31.1450858,40.6014041 29.8346333,41.2566303 C28.5241809,41.9118565 26.8861154,41.4750391 26.2308892,40.1645866 C25.575663,38.8541342 26.0124805,37.325273 27.322933,36.6700468 C27.4321373,36.6700468 27.4321373,36.5608425 27.5413416,36.5608425 C27.6505461,36.5608425 27.8689547,35.7964118 28.1965678,35.0319813 C28.4149766,34.2675508 28.6333854,33.6123245 28.6333854,33.6123245 C28.6333854,33.5031201 28.6333854,33.3939158 28.7425897,33.3939158 L30.0530421,28.8073323 L28.7425897,31.5374415 C28.5241809,30.9914197 28.3057723,30.9914197 27.6505461,31.4282371 C27.322933,31.6466459 26.6677067,32.1926677 26.449298,32.4110764 C25.9032761,32.8478939 25.4664587,33.6123245 25.2480499,34.049142 C25.1388456,34.3767551 24.9204368,34.5951639 24.7020281,34.8135725 C23.7191888,35.6872075 22.1903276,35.4687987 21.425897,34.4859594 C20.6614665,33.5031201 20.8798752,32.1926677 21.8627145,31.4282371 C22.1903276,31.2098284 22.5179407,30.9914197 22.8455538,30.9914197 C23.3915757,30.8822153 25.4664587,29.5717628 26.6677067,28.8073323 C26.8861154,28.698128 27.1045242,28.4797192 27.2137285,28.3705149 L30.3806552,26.0772231 L27.5413416,27.6060842 L26.8861154,27.6060842 C26.0124805,27.7152887 24.9204368,27.824493 24.7020281,28.1521061 C24.5928237,28.2613104 24.4836193,28.4797192 24.2652106,28.5889235 C23.3915757,29.0257411 22.0811233,28.8073323 21.3166927,27.9336973 C20.6614665,26.950858 20.8798752,25.74961 21.7535101,25.0943838 C22.299532,24.7667707 22.7363495,24.6575663 23.1731669,24.6575663 C23.9375975,24.6575663 25.9032761,25.0943838 27.5413416,24.7667707 L27.9781592,24.6575663 C29.6162247,24.3299532 31.5819033,23.0195008 32.3463339,21.4906396 C32.3463339,21.4906396 33.1107644,20.0709828 34.0936037,18.5421217 C35.076443,16.9040562 34.9672387,15.1567863 33.9843994,14.5015601 L32.1279251,13.4095164 C31.1450858,12.8634945 29.6162247,12.8634945 28.6333854,13.4095164 L15.7472699,20.5078003 C14.7644306,21.0538222 14,22.4734789 14,23.5655226 L14,37.5436818 C14,38.6357254 14.7644306,39.8369735 15.7472699,40.3829953 L28.7425897,47.5904836 C29.725429,48.1365055 31.2542902,48.1365055 32.2371295,47.5904836 L45.0140406,40.273791 C45.9968799,39.7277691 46.7613105,38.5265211 46.7613105,37.4344773 L46.7613105,23.5655226 C46.7613105,22.4734789 45.9968799,21.2722309 45.0140406,20.726209 L45.0140406,20.726209 L45.0140406,20.726209 Z" id="Shape" fill="#FFFFFF"></path>
            </g>
        </g>
    </g>
</svg>