<?xml version="1.0" encoding="UTF-8"?>
<svg width="60px" height="60px" viewBox="0 0 60 60" version="1.1" xmlns="http://www.w3.org/2000/svg" xmlns:xlink="http://www.w3.org/1999/xlink">
    <!-- Generator: Sketch 46.2 (44496) - http://www.bohemiancoding.com/sketch -->
    <title>Tripadvisor</title>
    <desc>Created with Sketch.</desc>
    <defs></defs>
    <g id="Page-1" stroke="none" stroke-width="1" fill="none" fill-rule="evenodd">
        <g id="Social_icons" transform="translate(-622.000000, -1555.000000)">
            <g id="Tripadvisor" transform="translate(622.000000, 1555.000000)">
                <path d="M0,30 C0,13.4314567 13.4314567,0 30,0 C46.5685433,0 60,13.4314567 60,30 C60,46.5685433 46.5685433,60 30,60 C13.4314567,60 0,46.5685433 0,30 Z" id="back" fill="#FFFFFF"></path>
                <g id="Group" transform="translate(12.000000, 19.000000)">
                    <path d="M19.1053333,15.4625882 C20.632,19.6594118 25.232,21.8065294 29.3693333,20.2614706 C33.504,18.7055882 35.6253333,14.042 34.0933333,9.84382353 C32.5653333,5.64023529 27.972,3.49582353 23.8293333,5.04629412 C19.6893333,6.59947059 17.576,11.2617059 19.1053333,15.4625882 L19.1053333,15.4625882 Z" id="Shape" fill="#FFFFFF"></path>
                    <ellipse id="Oval" fill="#FFFFFF" cx="8.88933333" cy="12.6214118" rx="7.98933333" ry="8.10682353"></ellipse>
                    <path d="M10.2506667,12.5361765 C10.2506667,13.3628235 9.58933333,14.0392941 8.77466667,14.0392941 C7.95733333,14.0392941 7.29733333,13.3628235 7.29733333,12.5361765 C7.29733333,11.7108824 7.95733333,11.0425294 8.77466667,11.0425294 C9.58933333,11.0411765 10.2506667,11.7108824 10.2506667,12.5361765 L10.2506667,12.5361765 Z" id="Shape" fill="#BE3538"></path>
                    <path d="M28.056,12.5361765 C28.056,13.3628235 27.3973333,14.0392941 26.5826667,14.0392941 C25.7626667,14.0392941 25.1053333,13.3628235 25.1053333,12.5361765 C25.1053333,11.7108824 25.7626667,11.0425294 26.5826667,11.0425294 C27.3973333,11.0411765 28.056,11.7108824 28.056,12.5361765 L28.056,12.5361765 Z" id="Shape" fill="#589442"></path>
                    <path d="M4.38533333,12.5361765 C4.38533333,14.9944706 6.356,16.9900588 8.77733333,16.9900588 C11.1933333,16.9900588 13.1626667,14.9944706 13.1626667,12.5361765 C13.1626667,10.0846471 11.192,8.08770588 8.77733333,8.08770588 C6.356,8.08905882 4.38533333,10.0832941 4.38533333,12.5361765 L4.38533333,12.5361765 Z M5.89866667,12.5361765 C5.89866667,10.9288824 7.19333333,9.62058824 8.78,9.62058824 C10.364,9.62058824 11.652,10.9302353 11.652,12.5361765 C11.652,14.1488824 10.364,15.4585294 8.78,15.4585294 C7.19333333,15.4598824 5.89866667,14.1502353 5.89866667,12.5361765 L5.89866667,12.5361765 Z" id="Shape" fill="#000000"></path>
                    <path d="M22.192,12.5361765 C22.192,14.9944706 24.16,16.9900588 26.5813333,16.9900588 C28.9986667,16.9900588 30.9653333,14.9944706 30.9653333,12.5361765 C30.9653333,10.0846471 28.9986667,8.08770588 26.5813333,8.08770588 C24.1613333,8.08905882 22.192,10.0832941 22.192,12.5361765 L22.192,12.5361765 Z M23.7053333,12.5361765 C23.7053333,10.9288824 24.996,9.62058824 26.584,9.62058824 C28.168,9.62058824 29.4546667,10.9302353 29.4546667,12.5361765 C29.4546667,14.1488824 28.168,15.4585294 26.584,15.4585294 C24.9946667,15.4598824 23.7053333,14.1502353 23.7053333,12.5361765 L23.7053333,12.5361765 Z" id="Shape" fill="#000000"></path>
                    <g transform="translate(9.000000, 1.705882)" id="Shape">
                        <path d="M11.6893333,14.8958824 C12.4093333,16.0107059 13.4093333,16.9104118 14.6306667,17.4827059 C16.352,18.2890588 18.28,18.3648235 20.0573333,17.7005294 C23.7266667,16.3218824 25.612,12.1764706 24.256,8.45588235 C22.9,4.73258824 18.8146667,2.82223529 15.144,4.19547059 C13.3666667,4.86111765 11.9506667,6.19105882 11.156,7.93770588 C10.6253333,9.10664706 10.4466667,10.3716471 10.5653333,11.6204118"></path>
                        <path d="M14.5213333,2.48670588 C15.4466667,2.14035294 16.3933333,1.97258824 17.328,1.94688235 C14.7813333,0.788764706 11.8986667,0.202941176 8.70533333,0.202941176 C5.536,0.202941176 2.612,0.803647059 0.0666666667,1.90629412 C4.67333333,1.99964706 8.41866667,5.66070588 8.74133333,10.2742353 C8.82,9.21488235 9.07466667,8.16770588 9.52533333,7.176 C10.5186667,4.98423529 12.2946667,3.32011765 14.5213333,2.48670588 L14.5213333,2.48670588 Z" fill="#FFD881"></path>
                    </g>
                    <path d="M35.4813333,3.67441176 L29.5493333,3.67035294 C26.2226667,1.49076471 22.184,0.335352941 17.708,0.335352941 C13.0626667,0.335352941 8.868,1.51917647 5.56,3.71364706 L0,3.71770588 C0,3.71770588 1.30666667,5.509 1.72933333,7.30570588 C0.648,8.79664706 0.00533333333,10.6312353 0.00533333333,12.6214118 C0.00533333333,17.5921176 3.992,21.6360588 8.892,21.6360588 C11.6933333,21.6360588 14.1906667,20.3115294 15.82,18.2537059 L17.712,21.1287059 L19.6186667,18.228 C20.476,19.3347059 21.5826667,20.2317059 22.88,20.8432353 C25.0373333,21.8498235 27.4546667,21.9472353 29.68,21.1138235 C34.2773333,19.3874706 36.6373333,14.1881176 34.9373333,9.52994118 C34.6386667,8.70870588 34.2306667,7.96458824 33.7426667,7.29488235 C34.1586667,5.486 35.4813333,3.67441176 35.4813333,3.67441176 Z M17.7066667,1.90882353 C20.9,1.90882353 23.7826667,2.49464706 26.3293333,3.65276471 C25.3933333,3.67847059 24.448,3.84758824 23.5226667,4.19258824 C21.296,5.026 19.52,6.69011765 18.5293333,8.88052941 C18.0786667,9.87223529 17.824,10.9194118 17.7453333,11.9787647 C17.42,7.36658824 13.6746667,3.70552941 9.068,3.61082353 C11.612,2.50817647 14.536,1.90882353 17.7066667,1.90882353 L17.7066667,1.90882353 Z M14.7626667,16.6504706 C13.4866667,18.5594706 11.3293333,19.8177059 8.88933333,19.8177059 C4.97733333,19.8177059 1.79466667,16.5855294 1.79466667,12.6227647 C1.79466667,8.65188235 4.97866667,5.42511765 8.88933333,5.42511765 C12.8,5.42511765 15.9826667,8.65188235 15.9826667,12.6227647 C15.9826667,12.8649412 15.936,13.0935882 15.912,13.3276471 C15.7933333,14.5452941 15.408,15.6858235 14.7626667,16.6504706 L14.7626667,16.6504706 Z M29.0573333,19.4077647 C27.28,20.0720588 25.352,19.9976471 23.6306667,19.1912941 C22.4093333,18.6176471 21.4093333,17.7179412 20.6893333,16.6017647 C20.396,16.1498824 20.1373333,15.6695882 19.948,15.146 C19.732,14.5534118 19.624,13.9418824 19.5653333,13.3262941 C19.4466667,12.0775294 19.6253333,10.8125294 20.156,9.64358824 C20.9506667,7.89694118 22.3666667,6.567 24.144,5.90135294 C27.8146667,4.52811765 31.9,6.43847059 33.256,10.1617647 C34.6106667,13.8837059 32.7266667,18.0277647 29.0573333,19.4077647 L29.0573333,19.4077647 Z" id="Shape" fill="#000000"></path>
                </g>
            </g>
        </g>
    </g>
</svg>