<?xml version="1.0" encoding="UTF-8"?>
<svg width="60px" height="60px" viewBox="0 0 60 60" version="1.1" xmlns="http://www.w3.org/2000/svg" xmlns:xlink="http://www.w3.org/1999/xlink">
    <!-- Generator: Sketch 46.2 (44496) - http://www.bohemiancoding.com/sketch -->
    <title>Utorrent</title>
    <desc>Created with Sketch.</desc>
    <defs></defs>
    <g id="Page-1" stroke="none" stroke-width="1" fill="none" fill-rule="evenodd">
        <g id="Social_icons" transform="translate(-822.000000, -1755.000000)">
            <g id="Utorrent" transform="translate(822.000000, 1755.000000)">
                <path d="M30,60 C46.5685435,60 60,46.5685435 60,30 C60,13.4314565 46.5685435,0 30,0 C13.4314565,0 0,13.4314565 0,30 C0,46.5685435 13.4314565,60 30,60 Z" id="Oval" fill="#FFFFFF"></path>
                <g id="Group-2" transform="translate(12.000000, 12.000000)" fill="#00853E">
                    <path d="M0.0274974371,17.0432297 C0.404241623,7.66648554 9.27866023,-0.571653999 18.705637,0.0311366982 C28.7354044,0.416252977 37.3921486,10.5632297 35.4581951,20.5929972 C33.8423812,20.576253 32.2349393,19.9818344 31.3558695,18.5502065 C29.0200556,15.0255553 27.9484277,10.8478809 25.821916,7.20602042 C24.2981951,7.44881112 22.7828463,7.74183437 21.2758695,8.07671809 C21.8535439,12.1706716 24.4237765,15.5948576 25.369823,19.5716018 C24.9344742,23.0460204 20.5642416,24.9967181 17.5502881,23.3809041 C15.0470323,22.4181134 14.0172649,19.7474158 13.1465672,17.4367181 C12.3093579,15.0255553 11.3633114,12.6478809 10.0907533,10.4292762 C8.15679976,10.3874158 6.16424162,10.4460204 4.41447418,11.3836948 C5.98842767,19.4460204 10.4005207,26.6292762 12.225637,34.6246251 C4.94191604,32.2971832 -0.432967679,24.7288111 0.0274974371,17.0432297 Z" id="Shape"></path>
                    <path d="M22.9251719,27.0646251 C24.8005207,26.0599739 26.1986602,24.4022995 27.79773,23.0376483 C30.049823,23.5818344 32.3437765,23.908346 34.6544742,24.0590437 C32.0926137,29.9446251 26.7261021,34.5074158 20.3716835,35.7297413 C18.6637765,33.2348576 17.5837765,30.3967181 16.7465672,27.508346 C18.8061021,27.4999739 20.9493579,27.7678809 22.9251719,27.0646251 Z" id="Shape"></path>
                </g>
            </g>
        </g>
    </g>
</svg>