<?xml version="1.0" encoding="UTF-8"?>
<svg width="60px" height="60px" viewBox="0 0 60 60" version="1.1" xmlns="http://www.w3.org/2000/svg" xmlns:xlink="http://www.w3.org/1999/xlink">
    <!-- Generator: Sketch 46.2 (44496) - http://www.bohemiancoding.com/sketch -->
    <title>Viadeo</title>
    <desc>Created with Sketch.</desc>
    <defs></defs>
    <g id="Page-1" stroke="none" stroke-width="1" fill="none" fill-rule="evenodd">
        <g id="Social_icons" transform="translate(-422.000000, -1355.000000)">
            <g id="Viadeo" transform="translate(422.000000, 1355.000000)">
                <path d="M0,30 C0,13.4314567 13.4314567,0 30,0 C46.5685433,0 60,13.4314567 60,30 C60,46.5685433 46.5685433,60 30,60 C13.4314567,60 0,46.5685433 0,30 Z" id="back" fill="#1A1919"></path>
                <g id="Group" transform="translate(16.000000, 11.000000)">
                    <path d="M29.1561876,0.818215531 C27.6358789,4.05376343 24.8212323,4.65483715 24.8212323,4.65483715 C22.0061368,5.37100052 21.0207973,6.45895744 21.0207973,6.45895744 C18.2061507,9.29326503 20.4234451,12.7308942 20.4234451,12.7308942 C26.5006404,11.3457722 28.7224227,6.34296864 28.7224227,6.34296864 C28.4522454,9.7037215 21.2180447,13.6743147 21.2180447,13.6743147 C23.6105954,16.0217391 25.8981269,15.7387354 27.4078887,14.8386983 C29.4095349,13.6453175 30.3692929,11.0317482 30.3692929,11.0317482 C32.3087803,5.2278128 29.1561876,0.818215531 29.1561876,0.818215531 L29.1561876,0.818215531 Z M19.1946318,10.6257875 C19.2619517,11.5966317 20.3624083,29.3220123 11,32.8767542 C11,32.8767542 11.8612464,33.0374751 12.8324487,32.9918439 C12.8324487,32.9918439 24.7366336,25.4707797 19.2756401,10.8681051 C19.2756401,10.8681051 19.2484877,10.7833614 19.1946318,10.6257875 L19.1946318,10.6257875 Z M14.2095903,0 C17.2037568,5.03292465 18.8277381,9.55109283 19.1946318,10.6257875 C19.1928366,10.5983638 19.1914902,10.5817297 19.1914902,10.5817297 C18.459498,2.8226188 14.2095903,0 14.2095903,0 L14.2095903,0 Z" id="Fill-8" fill="#E2652C"></path>
                    <path d="M21.8722609,23.1362976 C21.8722609,24.9241349 21.4521598,26.5909689 20.6126216,28.1363495 C19.7721981,29.6817301 18.6378365,30.8751211 17.208209,31.7160727 C15.7785815,32.5567993 14.2092891,32.9771626 12.4998893,32.9771626 C10.7907109,32.9771626 9.22141852,32.5567993 7.79179099,31.7160727 C6.36216345,30.8751211 5.22780193,29.6817301 4.38782105,28.1363495 C3.54784018,26.5909689 3.12751773,24.9241349 3.12751773,23.1362976 C3.12751773,20.363564 4.0489513,17.9997232 5.89093308,16.0454498 C7.73247218,14.0907266 9.93590027,13.1137024 12.4998893,13.1137024 C13.719909,13.1137024 14.8580333,13.3399654 15.9178036,13.7870934 C16.0236036,12.654654 16.4149306,11.6007093 16.8480907,10.7401903 C15.5147456,10.2485294 14.070067,10 12.5111776,10 C8.80419481,10 5.73710259,11.3863668 3.31012227,14.1591003 C1.10315275,16.674308 0,19.6440657 0,23.0683737 C0,26.5228201 1.16579164,29.5420588 3.49715358,32.1249654 C5.82873686,34.7083218 8.8331902,36 12.5111776,36 C16.1736713,36 19.1712631,34.7083218 21.5026251,32.1249654 C23.833987,29.5420588 25,26.5228201 25,23.0683737 C25,21.2195848 24.6783947,19.5057439 24.0407175,17.9239273 C22.9703229,18.593045 21.9530496,18.9432353 21.110634,19.1218166 C21.6168359,20.3482699 21.8722609,21.6858304 21.8722609,23.1362976" id="Fill-10" fill="#FFFFFE"></path>
                </g>
            </g>
        </g>
    </g>
</svg>