<?xml version="1.0" encoding="UTF-8"?>
<svg width="60px" height="60px" viewBox="0 0 60 60" version="1.1" xmlns="http://www.w3.org/2000/svg" xmlns:xlink="http://www.w3.org/1999/xlink">
    <!-- Generator: Sketch 46.2 (44496) - http://www.bohemiancoding.com/sketch -->
    <title>Vine</title>
    <desc>Created with Sketch.</desc>
    <defs></defs>
    <g id="Page-1" stroke="none" stroke-width="1" fill="none" fill-rule="evenodd">
        <g id="Social_icons" transform="translate(-322.000000, -1555.000000)">
            <g id="Vine" transform="translate(322.000000, 1555.000000)">
                <path d="M0,30 C0,13.4314567 13.4314567,0 30,0 C46.5685433,0 60,13.4314567 60,30 C60,46.5685433 46.5685433,60 30,60 C13.4314567,60 0,46.5685433 0,30 Z" id="back" fill="#00B488"></path>
                <path d="M29.2381576,48.7692015 C27.7904893,48.5389452 26.5714432,47.4642509 24.8952344,45.77554 C19.8666899,41.0162503 14.6857032,28.2736708 14,17.5269756 L20.0952303,17.5269756 C21.695177,28.8110179 24.2095312,36.4872995 29.6190583,42.7050438 C32.2856909,40.1718948 34.4951607,36.6408037 36.0190092,33.8005638 C33.0476561,32.4188612 31.3714473,29.8088776 30.4572037,27.4292327 C27.638129,20.060042 30.0762211,12.2302563 38.0762825,12 C43.9428905,12 45.9239018,16.4521988 46,20.6741412 C45.9238199,23.2072902 45.5428372,24.9728358 44.7809539,27.1222244 C43.1047451,27.5059848 41.3524381,27.0454723 40.2857523,26.2778689 C39.4476889,25.6637697 39.1428864,25.970778 39.6762293,24.2819845 C40.2857523,22.1326785 40.5142927,17.4501409 37.6191198,17.3733889 C35.6381085,17.526893 35.1048475,19.9832899 35.1048475,21.6720834 C35.6381904,28.5806791 40.0572119,31.6511752 45.9239018,30.1159684 L45.9239018,34.5681672 C44.0191525,35.0287622 43.9428905,35.0287622 41.5809785,35.1055143 C40.2095722,38.3295146 32.7428536,49.4601353 29.1619775,48.7692015 L29.2381576,48.7692015 L29.2381576,48.7692015 Z" fill="#FFFFFF"></path>
            </g>
        </g>
    </g>
</svg>