<?xml version="1.0" encoding="UTF-8"?>
<svg width="60px" height="60px" viewBox="0 0 60 60" version="1.1" xmlns="http://www.w3.org/2000/svg" xmlns:xlink="http://www.w3.org/1999/xlink">
    <!-- Generator: Sketch 46.2 (44496) - http://www.bohemiancoding.com/sketch -->
    <title>Visa</title>
    <desc>Created with Sketch.</desc>
    <defs>
        <linearGradient x1="16.1481739%" y1="34.4008407%" x2="85.8318643%" y2="66.3485849%" id="linearGradient-1">
            <stop stop-color="#222357" offset="0%"></stop>
            <stop stop-color="#254AA5" offset="100%"></stop>
        </linearGradient>
        <path d="M30.6316441,33.060232 C30.611146,31.4310555 32.0719086,30.5218488 33.1723354,29.9813277 C34.30297,29.4266681 34.6827251,29.0710334 34.6784097,28.5751025 C34.6697789,27.8159802 33.7764913,27.4810094 32.9403827,27.4679585 C31.4817778,27.4451196 30.6338018,27.8649208 29.9595207,28.1824906 L29.4341209,25.7039236 C30.1105597,25.3896165 31.3631043,25.1155495 32.6620394,25.1035862 C35.7108689,25.1035862 37.7056622,26.6207433 37.7164507,28.9731523 C37.728318,31.9585259 33.620058,32.1238362 33.6481081,33.4582818 C33.6578178,33.862857 34.0408095,34.2946214 34.8801546,34.4044658 C35.2955118,34.4599317 36.4423291,34.5023469 37.7423431,33.8987468 L38.252639,36.2968337 C37.5535444,36.5534997 36.6548625,36.79929 35.5360953,36.79929 C32.6663548,36.79929 30.6478269,35.2614692 30.6316441,33.060232 M43.1560113,36.5926521 C42.5993248,36.5926521 42.1300252,36.2652942 41.9207283,35.7628379 L37.5654117,25.2797722 L40.6120835,25.2797722 L41.2183971,26.9687649 L44.9415077,26.9687649 L45.2932128,25.2797722 L47.9784699,25.2797722 L45.6352082,36.5926521 L43.1560113,36.5926521 M43.582157,33.5365867 L44.4614196,29.288547 L42.0534269,29.288547 L43.582157,33.5365867 M26.9376625,36.5926521 L24.5361428,25.2797722 L27.4393276,25.2797722 L29.8397684,36.5926521 L26.9376625,36.5926521 M22.6427614,36.5926521 L19.6209032,28.8926723 L18.3985664,35.4398303 C18.2550794,36.1706758 17.6886832,36.5926521 17.0597138,36.5926521 L12.1196606,36.5926521 L12.0506142,36.2642066 C13.064733,36.0423428 14.2169446,35.684533 14.9149604,35.3017092 C15.3421849,35.0678821 15.4640949,34.8634194 15.6043454,34.3076722 L17.9195571,25.2797722 L20.9878059,25.2797722 L25.6915909,36.5926521 L22.6427614,36.5926521" id="path-2"></path>
    </defs>
    <g id="Page-1" stroke="none" stroke-width="1" fill="none" fill-rule="evenodd">
        <g id="Social_icons" transform="translate(-522.000000, -954.000000)">
            <g id="Visa" transform="translate(522.000000, 954.000000)">
                <circle id="Oval" fill="#FFFFFF" cx="30" cy="30" r="30"></circle>
                <mask id="mask-3" fill="white">
                    <use xlink:href="#path-2"></use>
                </mask>
                <use id="path10273" fill="url(#linearGradient-1)" transform="translate(30.014542, 30.951438) scale(1, -1) translate(-30.014542, -30.951438) " xlink:href="#path-2"></use>
            </g>
        </g>
    </g>
</svg>