<?xml version="1.0" encoding="UTF-8"?>
<svg width="60px" height="60px" viewBox="0 0 60 60" version="1.1" xmlns="http://www.w3.org/2000/svg" xmlns:xlink="http://www.w3.org/1999/xlink">
    <!-- Generator: Sketch 46.2 (44496) - http://www.bohemiancoding.com/sketch -->
    <title>Windows Copy</title>
    <desc>Created with Sketch.</desc>
    <defs></defs>
    <g id="Page-1" stroke="none" stroke-width="1" fill="none" fill-rule="evenodd">
        <g id="Social_icons" transform="translate(-632.000000, -1657.000000)">
            <g id="Windows-Copy" transform="translate(632.000000, 1657.000000)">
                <path d="M0,30 C0,13.4314567 13.4314567,0 30,0 C46.5685433,0 60,13.4314567 60,30 C60,46.5685433 46.5685433,60 30,60 C13.4314567,60 0,46.5685433 0,30 Z" id="back" fill="#FFFFFF"></path>
                <path d="M15,19.2606307 L27.2600489,17.5909389 L27.2654082,29.4167484 L15.0111995,29.4865325 L15,19.2606307 Z M27.2542087,30.779312 L27.2637249,42.6154279 L15.0095162,40.9306545 L15.0088291,30.699919 L27.2542087,30.779312 Z M28.7404137,17.3725137 L44.996221,15 L44.996221,29.266345 L28.7404137,29.3953972 L28.7404137,17.3725137 Z M45,30.8906202 L44.9961867,45.0927225 L28.7403793,42.7983993 L28.7176024,30.8640299 L45,30.8906202 Z" id="Shape" fill="#00ADEF"></path>
            </g>
        </g>
    </g>
</svg>