<?xml version="1.0" encoding="UTF-8"?>
<svg width="60px" height="60px" viewBox="0 0 60 60" version="1.1" xmlns="http://www.w3.org/2000/svg" xmlns:xlink="http://www.w3.org/1999/xlink">
    <!-- Generator: Sketch 46.2 (44496) - http://www.bohemiancoding.com/sketch -->
    <title>World</title>
    <desc>Created with Sketch.</desc>
    <defs></defs>
    <g id="Page-1" stroke="none" stroke-width="1" fill="none" fill-rule="evenodd">
        <g id="Social_icons" transform="translate(-822.000000, -1955.000000)">
            <g id="World" transform="translate(822.000000, 1955.000000)">
                <path d="M60,30 C60,46.5685425 46.5685425,60 30,60 C13.4314575,60 2.02906125e-15,46.5685425 0,30 C-2.02906125e-15,13.4314575 13.4314575,3.04359188e-15 30,0 C46.5685425,-3.04359188e-15 60,13.4314575 60,30 L60,30 Z" id="path2987" fill="#FFFFFF"></path>
                <path d="M29.9993647,12 C20.0753838,12 12,20.0741133 12,29.9993647 C12,39.9246162 20.0753838,47.9987295 29.9993647,47.9987295 C39.9246162,47.9987295 48,39.9258867 48,29.9993647 C48,20.0741133 39.9246162,12 29.9993647,12 L29.9993647,12 Z M46.443621,29.9993647 C46.443621,30.3144521 46.4156697,30.6219164 46.396612,30.9331922 C46.2809952,30.6409741 46.1056644,30.25982 46.0637374,30.0959238 C46.0027528,29.8469031 45.6304923,28.9791424 45.6304923,28.9791424 C45.6304923,28.9791424 45.2582319,28.4836421 45.0104817,28.3591318 C44.7640021,28.2346215 44.5772366,27.9246162 44.142721,27.6781366 C43.7082054,27.4291159 43.5239809,27.3058761 43.152991,27.3058761 C42.77946,27.3058761 42.4097406,26.8091053 41.9739545,26.5613552 C41.5394389,26.3148756 41.4784542,26.4381154 41.4784542,26.4381154 C41.4784542,26.4381154 41.9739545,27.1813658 41.9739545,27.3668608 C41.9739545,27.5523557 42.5304394,27.862361 43.0907358,27.7378507 C43.0907358,27.7378507 43.4617258,28.4201165 43.6472208,28.6056114 C43.8327157,28.7911064 43.5849656,28.9778719 43.2139756,29.225622 C42.8417152,29.4721016 42.9039704,29.411117 42.7159344,29.596612 C42.5304394,29.7821069 41.9116993,30.0946533 41.7249338,30.2166226 C41.5394389,30.3398624 40.7961885,30.7121228 40.4251985,30.3398624 C40.2435151,30.16072 40.2994177,29.7833774 40.1774484,29.5343568 C40.0529381,29.2866067 38.7519322,27.3655903 38.1319217,26.4991001 C38.023928,26.3466384 37.7596612,25.8765484 37.5754367,25.7558497 C37.3899418,25.6300688 38.0099524,25.6300688 38.0099524,25.6300688 C38.0099524,25.6300688 38.0099524,25.1955532 37.9476972,24.8868184 C37.8841715,24.5768131 38.0099524,24.143568 38.0099524,24.143568 C38.0099524,24.143568 37.3899418,24.514558 37.2019058,24.6390683 C37.0176813,24.7635786 36.8309158,24.3925887 36.5844362,24.0813129 C36.3366861,23.7725781 36.0876654,23.3990471 36.0266808,23.0890418 C35.9644256,22.780307 36.3366861,22.6557967 36.3366861,22.6557967 L36.893171,22.3470619 C36.893171,22.3470619 37.5754367,22.2238221 38.0099524,22.2848068 C38.4431975,22.3470619 39.1241927,22.4093171 39.1241927,22.4093171 C39.1241927,22.4093171 39.3096877,21.9748015 39.0619375,21.7893065 C38.8154579,21.6038115 38.2551615,21.2938062 38.0074113,21.3560614 C37.7609317,21.4170461 38.1306511,21.0460561 38.4393859,20.798306 L37.7533086,20.6737957 C37.7533086,20.6737957 37.1294865,20.983801 36.942721,21.0460561 C36.757226,21.1070408 36.4345156,21.2315511 36.185495,21.5415564 C35.9390154,21.8515617 36.284595,22.2848068 36.0368449,22.4093171 C35.7903653,22.5338274 35.6226575,22.5948121 35.435892,22.6557967 C35.250397,22.7180519 34.6608788,22.6557967 34.6608788,22.6557967 C34.02054,22.6557967 34.4309158,23.2402329 34.5973531,23.4473266 L34.1018528,22.8425622 L33.7346744,21.976072 C33.7346744,21.976072 33.2061408,21.6050821 32.9583907,21.4818422 C32.7106406,21.3573319 31.9470619,20.9240868 31.9470619,20.9240868 L32.0004235,21.4818422 L32.7182636,22.208576 L32.7817893,22.2250926 L33.1553203,22.7205929 L32.330757,22.7828481 L32.330757,22.2924299 C31.5532028,22.1043939 31.7564849,21.9112758 31.6688195,21.8515617 C31.484595,21.7283219 31.0538909,21.4170461 31.0538909,21.4170461 C31.0538909,21.4170461 30.3246162,21.5415564 30.1378507,21.6038115 C29.9510852,21.6660667 29.8989942,21.8515617 29.5292747,21.9748015 C29.1557438,22.0993118 28.988036,22.2848068 28.8647962,22.4703017 C28.7415564,22.6557967 28.3375331,23.2135521 28.092324,23.4613023 C27.8433033,23.7103229 27.3833774,23.6467972 27.1978825,23.6467972 C27.011117,23.6467972 26.1166755,23.3990471 26.1166755,23.3990471 L26.1166755,22.3483325 C26.1166755,22.3483325 26.2373743,21.7588142 26.1763896,21.5733192 L26.7188989,21.4818422 L27.624775,21.2950768 L27.8903123,21.1083113 L28.2714664,20.612811 C28.2714664,20.612811 27.8433033,20.3028057 28.1520381,19.8695606 C28.3006882,19.6611964 28.8355744,19.6218105 29.0833245,19.4363155 C29.3298041,19.2508205 29.7046056,19.1263102 29.7046056,19.1263102 C29.7046056,19.1263102 30.1391212,18.7553203 30.5723663,18.3208047 C30.5723663,18.3208047 30.8823716,18.1340392 31.2533616,18.0095289 C31.2533616,18.0095289 32.3078878,18.9395447 32.4946533,18.9395447 C32.6814187,18.9395447 33.362414,18.5062996 33.362414,18.5062996 C33.362414,18.5062996 33.5479089,17.9498147 33.4869243,17.7630492 C33.4246691,17.5775543 33.1146638,16.9575437 33.1146638,16.9575437 C33.1146638,16.9575437 32.9291689,17.267549 32.7436739,17.5152991 C32.5581789,17.7630492 32.4336686,18.0730545 32.4336686,18.0730545 C32.4336686,18.0730545 31.5659079,18.0133404 31.5049232,17.8278454 C31.4413976,17.6410799 31.3194283,17.3348862 31.2559026,17.1506617 C31.1961885,16.9638962 30.6994177,16.9702488 30.3296983,17.0947591 C29.9561673,17.2192695 30.3894124,16.426469 30.3894124,16.426469 C30.3894124,16.426469 30.7629434,15.9589201 31.009423,15.9589201 C31.2559026,15.9589201 31.816199,15.6412917 32.0614082,15.580307 C32.3104288,15.5180519 33.0562202,15.2347274 33.3636845,15.2347274 C33.6736898,15.2347274 34.0459502,15.3681313 34.2327157,15.3681313 L35.1614611,15.3681313 L36.4611964,15.2639492 C36.4611964,15.2639492 37.5779778,15.6768661 37.2044468,15.9258867 C37.2044468,15.9258867 37.6402329,16.1939651 37.8257279,16.37946 C37.9997882,16.5547909 38.44955,16.2181048 38.7074643,16.0745368 C43.343568,18.9840127 46.443621,24.1308629 46.443621,29.9993647 L46.443621,29.9993647 Z M16.8775013,20.3028057 C16.8775013,20.5505558 16.5395447,20.61027 16.8775013,21.2328216 C17.3094759,22.0383272 16.938486,22.4105876 16.938486,22.4105876 C16.938486,22.4105876 15.8839598,23.153838 15.6984648,23.2783483 C15.5129698,23.4028587 15.0174696,24.0838539 15.3262043,23.8970884 C15.6362096,23.7115934 16.0071996,23.5260985 15.6984648,24.0215987 C15.3884595,24.5183695 14.8307041,25.3226046 14.7074643,25.6338804 C14.5842245,25.9451562 13.9642139,26.6871361 13.9642139,27.0593965 C13.9642139,27.431657 13.7164637,28.1761779 13.7787189,28.4861832 C13.8206458,28.7021705 13.6834304,29.3386977 13.5754367,29.6004235 C13.6592906,26.1166755 14.8319746,22.9060879 16.7682372,20.2799365 C16.8317628,20.286289 16.8775013,20.3028057 16.8775013,20.3028057 L16.8775013,20.3028057 Z M18.868396,17.9269455 C20.3841186,16.5281101 22.1602965,15.4125993 24.1194283,14.6579142 C23.9263102,14.9056644 23.6925357,15.1597671 23.6925357,15.1597671 C23.6925357,15.1597671 23.2592906,15.1584966 22.4525146,16.0275278 C21.6482795,16.8952885 21.8337745,16.6475384 21.6482795,16.894018 C21.4627845,17.1404976 21.5237692,17.2040233 21.0892536,17.5152991 C20.657279,17.8240339 20.4705135,18.1962943 20.4705135,18.1962943 L19.7882478,18.4440445 L19.2317628,18.1962943 C19.2317628,18.1962943 18.7337215,18.3830598 18.7959767,18.1340392 C18.8137639,18.0679725 18.8404447,17.9993647 18.868396,17.9269455 L18.868396,17.9269455 Z M26.2958179,19.3727898 L26.0493383,19.0017999 L26.2958179,18.4440445 L26.8929592,18.682901 L26.8929592,17.5762837 L27.4634198,17.267549 L27.9373213,17.9485442 L28.6665961,18.7553203 L28.1825304,19.1263102 L26.8916887,19.3740603 L26.8916887,18.7172049 L26.2958179,19.3727898 L26.2958179,19.3727898 Z M34.3534145,25.1980942 C34.498253,25.083748 34.9721546,25.3835892 34.9721546,25.3835892 C34.9721546,25.3835892 36.5209105,25.6935945 36.7686607,25.8790895 C37.0176813,26.0658549 37.4509264,26.1903653 37.5754367,26.3771308 C37.6999471,26.5626257 38.1319217,27.1203812 38.1929063,27.3058761 C38.256432,27.4913711 38.5664373,28.1749074 38.6286924,28.421387 C38.6909476,28.6691371 38.8764426,29.2891477 39.0619375,29.599153 C39.2474325,29.9104288 40.3019587,31.2724193 40.6729487,31.8924299 L41.7910005,31.7069349 C41.7910005,31.7069349 41.6652197,32.2634198 41.5419799,32.4501853 C41.4187401,32.6356803 41.0464796,33.1311805 40.8609846,33.3789307 C40.6742192,33.6266808 40.4277395,33.9989412 40.0554791,34.307676 C39.6844891,34.6164108 39.6819481,34.9264161 39.4977237,35.1754367 C39.3122287,35.4231869 39.063208,35.9809423 39.063208,35.9809423 C39.063208,35.9809423 39.1877184,37.2209635 39.248703,37.4687136 C39.3096877,37.7164637 38.8154579,38.397459 38.8154579,38.397459 L38.256432,38.9564849 L37.50937,39.9462149 L37.5703547,40.8749603 C37.5703547,40.8749603 37.0062467,41.3107464 36.6949709,41.557226 C36.3875066,41.8037057 36.4357861,41.9904711 36.188036,42.2394918 C35.9415564,42.4859714 34.9721546,42.920487 34.7244044,42.9827422 C34.4766543,43.0449974 33.1095818,43.2304923 33.1095818,43.2304923 L33.1095818,42.6740074 L33.0816305,42.0539968 C33.0816305,42.0539968 32.8935945,41.3107464 32.706829,41.0629963 C32.5200635,40.8152462 32.6013764,40.4417152 32.2913711,40.1329804 C31.9813658,39.8229751 31.8670196,39.5764955 31.8047644,39.3884595 C31.7425093,39.2029645 31.8721016,38.6464796 31.8721016,38.6464796 C31.8721016,38.6464796 32.1223928,37.9642139 32.2456326,37.7164637 C32.3701429,37.4687136 32.2469031,37.0977237 32.1223928,36.848703 C31.9978825,36.5996824 31.9381683,35.9796718 31.9381683,35.7954473 C31.9381683,35.6099524 31.4401271,35.2986765 31.2546321,35.1131816 C31.0691371,34.9276866 31.1313923,34.678666 31.1313923,34.4334569 C31.1313923,34.1831657 30.9458973,33.6266808 31.0068819,33.1921652 C31.0691371,32.7589201 30.450397,33.0676548 30.0781366,33.1921652 C29.7058761,33.3166755 29.4593965,33.0676548 29.4593965,32.6953944 C29.4593965,32.3231339 28.7784013,32.6344097 28.3438857,32.8808894 C27.9080995,33.1286395 27.4138698,33.1286395 26.9158285,33.315405 C26.4215987,33.5008999 26.1751191,33.12991 26.1751191,33.12991 C26.1751191,33.12991 25.739333,32.7589201 25.4318687,32.5721546 C25.1205929,32.3866596 24.8105876,32.0156697 24.561567,31.7056644 C24.3150873,31.3943886 23.6938062,30.4643727 23.6340921,30.0946533 C23.571837,29.7211223 23.6340921,29.4721016 23.6340921,29.0388565 C23.6340921,28.6056114 23.6340921,28.3578613 23.6950768,28.047856 C23.7573319,27.7378507 23.9428269,27.3655903 24.1295924,27.055585 C24.3150873,26.7455797 24.9973531,26.3745897 25.1815776,26.2500794 C25.3670725,26.1268396 25.8015881,25.7558497 25.8015881,25.506829 C25.8015881,25.2590789 26.0506088,25.1358391 26.1725781,24.8868184 C26.2983589,24.6390683 26.731604,24.0203282 27.2893594,24.2680783 C27.2893594,24.2680783 27.7835892,24.2070937 27.9690842,24.1448385 C28.1545791,24.0825834 28.6500794,23.8983589 28.8952885,23.7738486 C29.1430386,23.6493383 29.7605082,23.5908947 29.7605082,23.5908947 C29.7605082,23.5908947 30.2483854,23.7852832 30.4338804,23.7852832 C30.6193753,23.7852832 31.2241398,23.6772896 31.2241398,23.6772896 C31.2241398,23.6772896 31.5036527,24.5755426 31.5036527,24.7623081 C31.5036527,24.9490736 31.6891477,25.133298 32.0004235,25.2578084 C32.3066173,25.3835892 33.7334039,25.694865 34.3534145,25.1980942 L34.3534145,25.1980942 Z M41.4797247,37.3454738 C41.4797247,37.5309688 41.4174696,38.0277395 41.3552144,38.2754897 C41.2904182,38.5232398 41.1684489,38.9577554 41.1074643,39.2029645 C41.0452091,39.4519852 40.7352038,39.9474854 40.5509794,40.0719958 C40.3654844,40.1965061 40.0542086,40.5687665 39.8699841,40.6297512 C39.6844891,40.6920064 39.5587083,40.1952356 39.6209635,39.9474854 C39.6844891,39.6997353 39.9932239,39.0187401 39.9932239,39.0187401 C39.9932239,39.0187401 40.0554791,38.6477501 40.1164637,38.3987295 C40.1799894,38.1522499 40.9232398,37.8422446 40.9232398,37.8422446 L41.4200106,36.9122287 C41.4174696,36.9109582 41.4797247,37.1612493 41.4797247,37.3454738 L41.4797247,37.3454738 Z M13.97946,33.6533616 C14.0595024,33.6736898 14.1738486,33.7321334 14.3352038,33.8757014 C14.5689783,34.0789836 14.7074643,34.1831657 15.0174696,34.3089465 C15.3262043,34.4347274 15.4507147,34.6176813 15.8229751,34.8044468 C16.1952356,34.9912123 16.0719958,34.8679725 16.5662255,35.4244574 C17.0629963,35.9809423 17.0007411,35.9809423 17.1239809,36.2922181 C17.2472208,36.6034939 17.4339862,36.9109582 17.5584966,37.0989942 C17.6830069,37.2844891 18.0539968,37.407729 18.2394918,37.5322393 C18.4249868,37.6567496 18.7349921,37.7799894 18.920487,37.7799894 C19.1072525,37.7799894 19.6650079,38.3377448 19.9750132,38.3987295 C20.2850185,38.4622552 20.2850185,39.0822657 20.2850185,39.0822657 L19.9750132,39.948756 L19.7259926,40.8775013 L19.9750132,41.6207517 C19.9750132,41.6207517 19.6014823,41.9320275 19.3562732,41.9320275 C19.1275807,41.9320275 19.0500794,42.0768661 18.7997882,42.0082583 C16.4366331,39.8013764 14.7227104,36.9147697 13.97946,33.6533616 L13.97946,33.6533616 Z" id="Shape" fill="#228CC4"></path>
            </g>
        </g>
    </g>
</svg>