<?xml version="1.0" encoding="UTF-8"?>
<svg width="60px" height="60px" viewBox="0 0 60 60" version="1.1" xmlns="http://www.w3.org/2000/svg" xmlns:xlink="http://www.w3.org/1999/xlink">
    <!-- Generator: Sketch 46.2 (44496) - http://www.bohemiancoding.com/sketch -->
    <title>Xbox</title>
    <desc>Created with Sketch.</desc>
    <defs></defs>
    <g id="Page-1" stroke="none" stroke-width="1" fill="none" fill-rule="evenodd">
        <g id="Social_icons" transform="translate(-422.000000, -854.000000)">
            <g id="Xbox" transform="translate(422.000000, 854.000000)">
                <path d="M0,30 C0,13.4314567 13.4314567,0 30,0 C46.5685433,0 60,13.4314567 60,30 C60,46.5685433 46.5685433,60 30,60 C13.4314567,60 0,46.5685433 0,30 Z" id="back" fill="#FFFFFF"></path>
                <path d="M26.101221,48.2961888 C21.7713531,47.189443 16.9429306,44.0884241 16.9429306,42.4143428 C16.9429306,40.1731744 21.8434464,33.900348 27.2150955,29.2656211 L30.2369594,26.658319 L31.592256,27.6022987 C33.7212287,29.0851556 40.5332208,36.1408767 42.0572146,38.4416852 C44.529975,42.1748715 44.4196883,43.0072392 41.1394842,45.3682259 C37.183258,48.2157927 30.7142512,49.4753135 26.101221,48.2961888 L26.101221,48.2961888 Z M14.892116,40.5848477 C12.0687905,36.4382813 11.1617299,29.610177 12.8453559,25.1774301 C13.8881314,22.431948 16.346112,18.6932732 17.6851821,17.8158808 C18.6524414,17.1821073 18.8377749,17.1887857 20.1683732,17.9053616 C20.9592318,18.3312658 22.6100334,19.5787412 23.8368194,20.6775295 L26.0673467,22.6753266 L23.6787023,25.6335378 C18.8790156,31.5776904 15.1823801,38.9967808 15.8975687,41.2501443 C16.258428,42.3871111 16.005124,42.219503 14.892116,40.5848477 L14.892116,40.5848477 Z M44.7630919,40.4559948 C44.7152317,36.988098 42.0013777,31.7483338 37.0882332,25.6377703 L34.7131095,22.6837916 L36.8425474,20.7296875 C38.0137354,19.65493 39.677981,18.3974814 40.5408646,17.9353572 L42.1097524,17.0951318 L43.8476107,18.7889368 C44.8034363,19.7205298 46.1989408,21.726045 46.9487294,23.2456373 C48.123447,25.6264318 48.3322753,26.5514103 48.4587331,29.9339748 C48.6283351,34.4707449 47.9377551,37.3996629 46.0244265,40.2584372 L44.7859038,42.1089602 L44.7631132,40.4559948 L44.7630919,40.4559948 Z M28.2606537,17.9023945 C27.3260011,17.3490265 25.3628149,16.5718605 23.8980168,16.1753582 C22.4332187,15.7788564 21.3209661,15.3149466 21.4263362,15.1444479 C21.5317106,14.9739492 22.9734962,14.3985768 24.6303028,13.8658426 C28.9668372,12.4714598 34.0994882,12.7786769 37.923623,14.6615207 C39.4120013,15.394335 40.2282837,15.8963628 39.7375821,15.7771377 C38.6447484,15.5116117 33.883268,16.9541482 31.9769558,18.1282948 C30.3038672,19.158792 30.3917646,19.1641346 28.2606537,17.9023945 L28.2606537,17.9023945 Z" id="path3505" fill="#7EB900"></path>
            </g>
        </g>
    </g>
</svg>