<?xml version="1.0" encoding="UTF-8"?>
<svg width="60px" height="60px" viewBox="0 0 60 60" version="1.1" xmlns="http://www.w3.org/2000/svg" xmlns:xlink="http://www.w3.org/1999/xlink">
    <!-- Generator: Sketch 46.2 (44496) - http://www.bohemiancoding.com/sketch -->
    <title>YandexBrowser</title>
    <desc>Created with Sketch.</desc>
    <defs></defs>
    <g id="Page-1" stroke="none" stroke-width="1" fill="none" fill-rule="evenodd">
        <g id="Social_icons" transform="translate(-422.000000, -1755.000000)">
            <g id="YandexBrowser" transform="translate(422.000000, 1755.000000)">
                <path d="M0,30 C0,13.4314567 13.4314567,0 30,0 C46.5685433,0 60,13.4314567 60,30 C60,46.5685433 46.5685433,60 30,60 C13.4314567,60 0,46.5685433 0,30 Z" id="back" fill="#000000"></path>
                <g id="Group" transform="translate(12.000000, 11.000000)">
                    <circle id="Oval" fill="#FFFFFF" cx="18" cy="18" r="18"></circle>
                    <path d="M14.3205882,36.7109244 C12.010084,35.3193277 10.5352941,32.260084 9.89243697,29.7567227 C9.28739496,27.4084034 9.00756303,24.4096639 9.0907563,20.3823529 C5.92184874,17.5273109 3.13865546,14.7063025 1.94747899,12.0403361 C0.805462185,9.4802521 1.36512605,5.98613445 3.67563025,4.22016807 C4.54159664,3.55840336 5.72521008,3.1197479 7.34747899,3.11596639 C7.15840336,6.7802521 9.82436975,9.17016807 13.360084,12.1310924 C15.6781513,9.63907563 18.6012605,7.18109244 21.5394958,5.47941176 C23.8310924,4.15210084 26.0848739,3.28991597 28.0021008,3.08571429 C30.0063025,2.87016807 32.0521008,3.51302521 33.3680672,5.1012605 C34.2226891,6.13361345 34.6878151,7.60840336 34.0147059,9.65042017 C32.3584034,9.88487395 30.9289916,10.2516807 29.6773109,10.7168067 C27.744958,11.4390756 26.4176471,12.5886555 25.0298319,13.7004202 C22.4886555,15.7386555 20.3445378,17.8033613 18.5558824,19.9172269 C18.4878151,23.3205882 18.5067227,28.0247899 19.4445378,31.3336134 C19.9588235,33.1487395 20.9117647,34.6197479 22.7117647,35.4365546 C19.8831933,38.3331933 16.5516807,38.0533613 14.3205882,36.7109244 Z" id="Shape" fill="#EC1A23"></path>
                </g>
            </g>
        </g>
    </g>
</svg>