<?xml version="1.0" encoding="UTF-8"?>
<svg width="60px" height="60px" viewBox="0 0 60 60" version="1.1" xmlns="http://www.w3.org/2000/svg" xmlns:xlink="http://www.w3.org/1999/xlink">
    <!-- Generator: Sketch 46.2 (44496) - http://www.bohemiancoding.com/sketch -->
    <title>Zerpply</title>
    <desc>Created with Sketch.</desc>
    <defs></defs>
    <g id="Page-1" stroke="none" stroke-width="1" fill="none" fill-rule="evenodd">
        <g id="Social_icons" transform="translate(-422.000000, -1855.000000)">
            <g id="Zerpply" transform="translate(422.000000, 1855.000000)">
                <path d="M0,30 C0,13.4314567 13.4314567,0 30,0 C46.5685433,0 60,13.4314567 60,30 C60,46.5685433 46.5685433,60 30,60 C13.4314567,60 0,46.5685433 0,30 Z" id="back" fill="#9DBC7A"></path>
                <path d="M17.3118889,34.9549547 C17.0478333,35.2554873 17.0046667,35.7459938 17.0046667,35.7459938 L17.0046667,38.6123426 C17.0046667,38.6466002 17.0015556,38.8575958 17,39.0837738 C17.0925556,39.5645481 17.3142222,39.6614815 17.4413889,39.6774424 L18.5590556,39.6774424 C21.3353333,39.6774424 23.7021111,39.7502398 26.2672222,41.0216638 C28.2377222,41.9976161 29.866,43.560619 31.7855556,44.6479084 C33.6055556,45.6783614 35.6833889,46.7598115 37.8148889,47.002729 C42.1055,47.491289 43.8298333,42.4947405 43.1158333,39.2546725 C41.2044444,40.7386494 38.5382222,40.7004989 36.0948333,40.0558332 C33.7949444,39.3165698 30.1358889,37.0220893 30.1358889,37.0220893 L30.1358889,37.0232572 C28.4951667,36.0352369 26.5674444,35.2192832 24.6323333,35.3037594 C24.6323333,34.4613339 24.6576111,34.429412 25.1888333,33.8349649 C25.9199444,33.0197897 26.6506667,32.2034468 27.3817778,31.3874931 C29.6812778,28.8193411 31.9815556,26.252357 34.2810556,23.6845944 C36.2383333,21.4995046 38.1952222,19.3148042 40.1521111,17.1293252 C40.3395556,16.9206653 41.0298333,16.3834439 41.0644444,16.0949793 C41.1834444,15.1026769 41.3024444,14.1103744 41.4218333,13.1180719 C41.5050556,12.430195 40.7638333,12.5952543 40.7638333,12.5952543 L40.7626667,12.5917507 C37.5885556,13.2134482 34.3273333,13.5377275 31.0921667,13.3948578 C29.2923889,13.3158317 27.3981111,13.1503831 25.7083889,12.5029923 C25.6473333,12.4796349 25.2895556,12.3036754 24.9539444,12.1265481 C24.4674444,11.8836306 24.1407778,12.0405148 23.9681111,12.1814381 C23.8316111,12.3453295 23.6873333,12.5029923 23.5586111,12.6715553 C22.7081111,13.7895987 21.9171111,15.1034554 21.7728333,16.5068491 C21.7401667,16.8198389 21.7001111,17.4800763 21.8786111,17.8775423 L21.8774444,17.8779316 C21.8774444,17.8779316 21.8968889,17.9262036 21.9505556,18.0032832 C21.9598889,18.0153512 21.9668889,18.0289764 21.9766111,18.0398766 C22.3814444,18.5786552 24.2461667,20.2000517 31.5277222,18.793933 C26.7895,24.1809402 22.0508889,29.5671689 17.3126667,34.9537868 C17.3118889,34.9541761 17.3118889,34.9541761 17.3118889,34.9549547" id="Z" fill="#FFFFFF"></path>
            </g>
        </g>
    </g>
</svg>