<?xml version="1.0" encoding="UTF-8"?>
<svg width="60px" height="60px" viewBox="0 0 60 60" version="1.1" xmlns="http://www.w3.org/2000/svg" xmlns:xlink="http://www.w3.org/1999/xlink">
    <!-- Generator: Sketch 46.2 (44496) - http://www.bohemiancoding.com/sketch -->
    <title>Zoom</title>
    <desc>Created with Sketch.</desc>
    <defs>
        <path d="M10.4347826,20.609087 L10.4347826,34.6958446 C10.4347826,37.8653739 13.0302033,40.4347826 16.2291228,40.4347826 L36.7732826,40.4347826 C37.3547283,40.4347826 37.826087,39.9671543 37.826087,39.3909293 L37.826087,25.3041522 C37.826087,22.1346196 35.230663,19.5652174 32.03175,19.5652174 L11.4875935,19.5652174 C10.9061413,19.5652174 10.4347826,20.0328587 10.4347826,20.609087 Z M39.1304348,26.1050217 L47.6086957,19.9191522 C48.3478043,19.314587 48.9130435,19.4548043 48.9130435,20.5703152 L48.9130435,39.4534663 C48.9130435,40.7045641 48.2086304,40.5629217 47.6086957,40.1046098 L39.1304348,33.9187467 L39.1304348,26.1050217 Z" id="path-1"></path>
    </defs>
    <g id="Page-1" stroke="none" stroke-width="1" fill="none" fill-rule="evenodd">
        <g id="Social_icons" transform="translate(-322.000000, -352.000000)">
            <g id="Zoom" transform="translate(322.000000, 352.000000)">
                <path d="M30,60 C46.5685435,60 60,46.5685435 60,30 C60,13.4314565 46.5685435,0 30,0 C13.4314565,0 0,13.4314565 0,30 C0,46.5685435 13.4314565,60 30,60 Z" id="Oval" fill="#2D8CFF"></path>
                <mask id="mask-2" fill="white">
                    <use xlink:href="#path-1"></use>
                </mask>
                <use id="Clip-14" fill="#FFFFFF" xlink:href="#path-1"></use>
            </g>
        </g>
    </g>
</svg>